<?xml version="1.0" standalone="no"?>
<!DOCTYPE svg PUBLIC "-//W3C//DTD SVG 20010904//EN"
 "http://www.w3.org/TR/2001/REC-SVG-20010904/DTD/svg10.dtd">
<svg version="1.0" xmlns="http://www.w3.org/2000/svg"
 width="512.000000pt" height="512.000000pt" viewBox="0 0 512.000000 512.000000"
 preserveAspectRatio="xMidYMid meet">
<metadata>
Created by potrace 1.16, written by Peter Selinger 2001-2019
</metadata>
<g transform="translate(0.000000,512.000000) scale(0.100000,-0.100000)"
fill="#000000" stroke="none">
<path d="M0 3640 c0 -814 2 -1480 5 -1480 3 0 16 7 28 15 21 14 79 36 185 70
23 8 71 28 106 45 35 16 69 30 74 30 6 0 27 10 47 22 31 18 38 19 47 7 7 -10
7 -7 3 10 -5 18 -4 22 6 16 9 -6 11 -3 6 8 -3 10 -2 17 3 17 6 0 10 -8 10 -17
0 -15 2 -14 15 3 8 10 3 -10 -11 -46 -30 -75 -30 -74 -19 -473 6 -232 10 -287
21 -283 18 7 95 -69 82 -82 -15 -15 1 -21 159 -54 202 -41 232 -47 274 -47 58
-1 62 18 62 317 0 141 -3 284 -7 317 -5 36 -3 70 3 85 l10 25 0 -30 c1 -17 10
-56 21 -88 16 -46 20 -83 21 -204 0 -82 6 -231 14 -333 15 -207 13 -214 -49
-203 -267 48 -535 107 -558 124 -15 10 -31 19 -35 19 -20 0 -358 -158 -379
-177 -29 -27 -30 -43 -4 -76 16 -20 38 -30 98 -42 121 -26 429 -94 517 -114
44 -10 139 -31 210 -46 125 -26 296 -64 380 -86 22 -5 74 -16 115 -25 41 -8
91 -19 110 -24 100 -26 315 -76 640 -149 146 -33 355 -81 465 -107 110 -25
247 -56 305 -69 58 -13 175 -40 260 -60 134 -32 167 -36 245 -33 76 3 98 8
136 30 47 27 249 170 334 235 6 5 109 75 230 156 121 82 263 178 315 214 52
36 178 122 280 190 283 188 262 172 258 202 -5 41 -52 57 -268 90 -284 45
-319 52 -323 70 -3 9 -5 -29 -6 -83 -1 -60 -5 -96 -10 -90 -5 5 -6 224 -2 534
7 493 8 506 10 210 2 -213 6 -303 12 -277 5 21 16 45 24 53 13 14 15 11 17
-28 2 -67 15 218 17 392 2 85 6 164 11 175 8 18 9 19 9 1 1 -11 6 -16 15 -13
8 3 17 -1 20 -9 3 -9 10 -13 15 -10 5 3 14 -1 21 -9 7 -8 17 -15 22 -15 5 0
18 -9 30 -20 12 -11 36 -20 53 -20 19 0 39 -8 50 -20 10 -11 24 -20 32 -20 7
0 13 -4 13 -9 0 -5 35 -25 77 -46 42 -21 83 -44 91 -51 7 -8 20 -14 28 -14 8
0 27 -6 42 -14 15 -7 39 -16 55 -20 l27 -6 0 1460 0 1460 -2560 0 -2560 0 0
-1480z m3000 1095 c25 -2 55 -3 68 -4 13 -1 21 -5 17 -11 -3 -5 12 -9 37 -8
80 2 228 -11 247 -22 11 -5 53 -10 94 -10 145 0 392 -21 435 -37 57 -21 76
-58 74 -140 -2 -59 -36 -183 -198 -703 -25 -80 -54 -176 -66 -215 -47 -157
-70 -232 -83 -270 -12 -35 -94 -299 -154 -501 -12 -39 -24 -84 -27 -100 -2
-16 -11 -46 -19 -66 -8 -21 -13 -43 -11 -50 1 -7 1 -9 -2 -4 -5 10 -62 -170
-61 -189 1 -5 1 -21 0 -35 -1 -20 -3 -22 -11 -10 -13 21 -13 3 1 -22 10 -18 9
-20 -6 -14 -15 5 -16 4 -5 -9 10 -12 9 -16 -3 -21 -9 -3 -24 -39 -37 -87 -20
-73 -21 -82 -6 -93 9 -6 16 -23 16 -37 0 -40 -39 -137 -56 -137 -8 0 -14 5
-14 10 0 6 -7 10 -15 10 -8 0 -15 -4 -15 -10 0 -5 -20 -32 -45 -60 -25 -28
-45 -48 -45 -44 0 4 -12 -6 -26 -21 -22 -23 -33 -27 -77 -27 -29 1 -81 7 -117
15 -36 8 -110 20 -165 26 -55 6 -122 16 -150 21 -134 25 -171 30 -206 30 -42
0 -46 -3 -53 -46 -21 -115 10 -239 67 -268 35 -17 247 -61 582 -119 50 -9 70
-17 70 -27 0 -21 -54 -17 -347 30 -299 48 -292 48 -284 14 4 -15 14 -33 21
-41 8 -8 15 -18 15 -21 0 -4 11 -20 25 -35 14 -15 22 -27 18 -27 -4 0 -1 -5 7
-10 13 -9 13 -10 0 -11 -8 0 5 -7 30 -15 l45 -14 -40 5 c-189 24 -511 84 -609
113 -49 15 -61 23 -67 44 -6 22 -2 28 32 48 54 30 80 84 84 174 4 85 -4 144
-16 125 -6 -10 -13 -11 -31 -1 -24 12 -135 46 -153 47 -24 1 -107 49 -119 69
-19 30 -29 76 -16 76 5 0 10 5 10 11 0 6 9 24 21 41 21 28 21 30 3 44 -18 13
-18 14 1 7 20 -7 20 -7 1 22 -17 26 -13 24 29 -13 56 -49 120 -71 225 -77 39
-3 75 -7 79 -9 4 -3 37 -8 72 -11 87 -8 239 -36 239 -44 0 -4 8 -7 18 -8 9 -1
44 -8 77 -17 33 -9 92 -20 130 -26 39 -6 90 -15 115 -19 293 -56 356 -61 414
-37 46 19 107 75 122 113 21 48 17 63 -6 26 -11 -18 -22 -33 -24 -33 -2 0 6
30 19 67 12 38 50 158 84 268 33 110 168 551 300 980 302 985 361 1184 361
1213 0 13 -7 36 -15 52 -13 25 -23 29 -82 38 -38 6 -176 13 -308 17 -132 3
-390 10 -574 16 -184 6 -354 8 -378 4 -47 -7 -104 -49 -128 -94 -7 -14 -54
-145 -105 -291 -50 -146 -122 -353 -160 -460 -38 -107 -123 -352 -190 -545
-189 -542 -246 -702 -286 -810 -20 -55 -42 -120 -49 -145 -12 -39 -13 -41 -14
-15 0 17 15 74 34 128 18 53 32 97 29 97 -3 0 -70 -43 -150 -96 -144 -95 -163
-114 -204 -199 -20 -40 -28 -848 -9 -871 7 -8 7 -14 1 -14 -31 0 -33 29 -30
432 3 387 4 405 25 456 35 87 67 118 234 228 87 58 159 108 159 111 0 4 -7 15
-17 25 -9 10 -13 21 -9 25 4 4 12 1 17 -7 8 -11 9 -9 4 9 -5 17 -4 22 6 16 9
-6 11 -2 7 13 -4 16 -2 19 10 15 9 -4 13 -2 9 4 -4 6 -1 26 7 44 33 82 28 216
-10 254 -29 28 -93 17 -106 -20 -1 -5 -10 -10 -20 -10 -9 -1 -14 4 -11 12 9
24 -24 14 -83 -26 -33 -22 -60 -38 -62 -36 -2 2 2 12 9 23 7 11 9 27 6 36 -5
14 -11 15 -27 6 -24 -13 -26 -3 -4 28 9 13 14 25 13 26 -2 2 -13 8 -24 14 -18
10 -18 11 -2 12 10 0 16 4 13 9 -4 5 -1 11 5 13 5 2 7 11 4 20 -5 11 -25 18
-73 23 -37 4 -84 9 -105 11 -40 5 -47 -8 -27 -47 12 -22 9 -23 -57 -19 l-43 2
0 -46 c0 -50 5 -55 52 -61 73 -10 103 -21 100 -38 -2 -11 2 -15 13 -11 10 4
15 0 15 -11 0 -11 5 -15 15 -11 19 7 19 4 1 -39 -11 -26 -19 -33 -33 -29 -13
4 -14 3 -5 -3 10 -8 10 -12 -3 -23 -8 -7 -15 -18 -15 -24 0 -6 5 -4 11 4 23
32 -4 -35 -60 -149 -34 -71 -62 -116 -69 -113 -7 2 -12 -4 -12 -13 0 -9 -4
-14 -9 -11 -10 6 -25 -24 -16 -32 3 -3 5 1 5 8 0 7 3 10 7 7 3 -4 -1 -15 -9
-24 -9 -10 -18 -29 -20 -43 -10 -47 -13 -55 -30 -67 -17 -13 -98 -24 -98 -14
0 3 -60 5 -133 5 -96 -1 -141 2 -165 13 -18 8 -39 12 -47 9 -7 -2 -15 3 -18
14 -4 16 1 17 40 13 31 -3 43 -1 38 6 -3 6 -15 11 -26 11 -25 0 -25 16 1 23
24 6 27 27 4 27 -8 0 -13 4 -10 8 3 5 20 7 38 5 l33 -3 -27 11 c-24 9 -27 15
-21 37 3 15 9 29 12 32 4 3 13 24 20 47 8 23 18 40 24 36 6 -4 7 -1 2 7 -4 7
-2 16 5 20 7 5 14 19 15 32 1 12 8 22 14 20 7 -1 10 2 6 7 -3 6 1 21 9 33 8
13 18 40 21 61 4 20 10 37 14 37 4 0 17 18 30 40 12 22 28 40 36 40 7 0 16 8
20 18 8 26 74 44 148 41 l62 -3 3 38 c2 21 0 46 -4 55 -4 9 -6 30 -5 48 2 23
-3 33 -17 37 -29 10 -141 -29 -200 -70 -61 -41 -78 -39 -36 4 33 32 127 72
191 79 45 6 40 -6 59 123 4 26 2 46 -7 56 -10 12 -10 17 0 23 19 12 25 206 7
224 -19 19 0 43 21 26 10 -9 13 -8 13 2 0 10 3 10 12 1 7 -7 20 -12 30 -12 16
0 18 11 20 113 1 101 2 105 7 42 8 -90 23 -70 21 28 -2 103 -4 97 24 84 23
-11 24 -12 5 -19 -17 -7 -19 -17 -19 -97 0 -76 -2 -89 -15 -85 -12 5 -15 -2
-15 -30 0 -40 16 -49 23 -13 4 19 4 18 6 -6 0 -15 4 -26 9 -25 4 2 7 -1 7 -7
0 -5 -3 -9 -7 -7 -5 1 -8 -4 -8 -10 0 -10 -2 -10 -8 -1 -10 15 -16 -308 -7
-337 4 -11 11 -18 16 -15 5 4 9 0 9 -7 0 -20 58 -21 97 -3 19 9 39 27 45 41 6
13 14 24 18 24 4 0 10 16 13 35 7 43 38 78 60 69 14 -5 17 1 17 30 0 27 -4 36
-17 37 -17 1 -17 2 0 6 17 4 21 24 19 91 -1 22 3 32 11 29 7 -2 11 -8 11 -13
-10 -60 -11 -105 -3 -109 5 -4 7 -11 4 -16 -4 -5 1 -9 9 -9 9 0 13 6 10 14 -4
10 2 16 18 18 22 3 23 7 26 98 2 59 -1 110 -9 134 -11 34 -11 39 4 48 20 11
23 68 5 86 -7 7 -36 12 -65 12 -29 0 -53 4 -53 8 0 4 27 5 61 2 48 -5 62 -3
69 10 6 9 10 10 10 3 0 -7 5 -13 10 -13 7 0 10 89 10 270 -2 269 3 312 32 294
6 -4 9 10 6 37 -2 34 0 44 12 44 10 0 14 -7 11 -20 -2 -11 -5 -249 -7 -529 -4
-450 -2 -507 11 -490 14 18 14 18 15 -10 0 -51 21 -14 29 51 8 67 4 94 -10 72
-7 -11 -9 -9 -9 6 0 31 19 46 42 34 15 -8 18 -19 15 -57 -3 -26 -2 -37 0 -24
4 18 7 20 18 9 7 -8 15 -25 18 -38 2 -13 4 5 4 41 0 36 -2 53 -4 37 -5 -33
-23 -26 -23 9 0 13 -5 24 -11 24 -5 0 -7 5 -3 11 4 8 9 8 17 0 6 -6 17 -11 25
-11 10 0 13 20 11 93 -4 132 0 301 6 295 3 -3 6 -93 7 -199 0 -107 4 -223 8
-259 l7 -65 3 50 c1 28 2 61 2 75 0 14 5 3 13 -25 10 -37 13 -43 14 -22 1 16
7 27 15 27 7 0 19 13 26 30 7 16 28 46 46 66 19 19 34 42 34 50 0 8 5 14 10
14 6 0 10 5 10 11 0 6 12 25 26 42 l27 32 -5 -30 c-3 -17 -3 -24 -1 -17 4 10
8 10 19 1 8 -6 15 -8 15 -3 1 5 3 19 4 30 1 12 6 28 11 35 9 15 14 55 15 129
l1 45 12 -45 c10 -35 13 -40 18 -24 3 12 -1 36 -8 54 -18 43 -18 47 4 19 l19
-22 11 31 c8 24 8 33 -4 43 -20 16 -18 32 6 47 11 7 20 8 20 3 0 -6 -4 -13
-10 -16 -13 -8 -13 -25 -1 -25 12 0 72 180 64 193 -3 6 -2 7 4 4 11 -7 45 92
40 114 -2 8 -2 10 1 5 7 -14 53 117 46 134 -3 8 -2 11 2 7 9 -9 46 83 40 100
-3 6 4 19 14 28 11 10 17 22 13 28 -3 5 -1 7 4 4 6 -4 21 7 33 23 13 17 29 30
35 30 7 0 15 7 18 15 4 8 28 21 54 30 45 14 174 14 403 0z m162 -290 c3 -13 2
-22 -2 -20 -9 5 -21 -47 -20 -84 0 -14 6 -28 13 -33 8 -5 5 -8 -9 -8 -16 0
-23 -7 -26 -30 -5 -35 20 -50 39 -24 23 31 24 8 3 -47 -49 -125 -50 -127 -33
-125 9 0 18 -4 20 -10 2 -7 -6 -10 -23 -6 -19 3 -25 1 -20 -7 4 -6 14 -11 23
-11 9 0 31 -11 49 -25 20 -15 47 -26 71 -27 37 -1 37 -1 5 -5 -38 -5 -33 -23
6 -24 15 0 21 -3 15 -6 -15 -6 -17 -39 -3 -48 6 -3 13 1 16 9 11 29 26 17 20
-16 -4 -22 -3 -27 2 -14 5 11 11 15 14 10 11 -17 0 -67 -16 -76 -20 -11 -21
-39 -2 -32 8 3 17 1 21 -5 3 -7 -2 -11 -14 -11 -19 0 -21 -6 -21 -53 0 -29 -6
-76 -13 -104 -13 -49 -13 -52 7 -57 12 -3 33 -6 49 -6 24 0 29 5 39 45 11 40
15 45 43 46 28 2 28 2 4 6 l-26 4 15 42 c15 43 30 217 18 217 -4 0 -23 -7 -43
-15 -44 -18 -43 -18 -43 0 0 9 15 25 34 36 30 18 33 23 26 48 -4 15 -15 42
-24 60 -17 32 -18 32 -37 15 -22 -20 -25 -13 -6 17 11 18 7 25 -37 65 -28 24
-56 44 -63 44 -7 0 -13 5 -13 10 0 27 49 2 111 -57 23 -22 39 -31 43 -24 8 12
46 34 46 27 0 -3 -9 -13 -19 -23 -19 -18 -19 -19 7 -75 26 -53 29 -56 57 -51
54 10 66 20 55 49 -7 17 -7 23 0 19 6 -3 10 -13 10 -21 0 -19 2 -18 65 17 44
25 55 28 55 15 0 -9 -32 -33 -76 -58 -125 -70 -123 -67 -126 -181 -1 -61 -7
-105 -15 -115 -20 -28 -16 -32 37 -32 43 0 50 -3 50 -20 0 -16 -7 -20 -37 -22
-37 -1 -37 -1 -5 -5 17 -2 32 -7 32 -11 -1 -19 -20 -27 -64 -27 -45 0 -50 -2
-59 -29 -5 -16 -16 -36 -24 -45 -8 -9 -32 -44 -54 -78 -40 -62 -103 -129 -169
-179 -69 -52 -211 -112 -307 -130 l-93 -16 -15 -47 c-13 -41 -12 -18 1 34 4
16 3 17 -5 5 -6 -8 -16 -34 -22 -57 -6 -24 -15 -40 -20 -37 -5 3 -9 -1 -9 -9
0 -8 -9 -44 -20 -80 -17 -56 -23 -64 -40 -60 -11 3 -20 6 -20 7 0 0 7 23 15
50 8 26 12 53 8 59 -4 6 -1 7 7 2 10 -6 11 -1 6 21 -5 21 -4 25 4 14 8 -13 10
-12 11 5 1 11 1 30 0 42 -1 12 3 24 9 28 24 15 10 42 -27 51 -25 6 -39 16 -42
29 -3 16 -1 17 11 7 8 -6 18 -9 21 -5 4 3 7 1 7 -5 0 -6 8 -11 18 -11 9 0 47
-3 83 -7 l67 -6 16 43 16 44 -6 -49 c-5 -41 -3 -48 8 -39 7 6 21 9 30 8 10 -2
20 1 24 6 3 5 14 9 26 9 53 0 258 117 258 147 0 8 4 12 9 8 10 -6 39 20 86 79
17 21 35 43 40 50 6 6 20 26 32 43 l22 31 -42 6 c-34 6 -88 -1 -156 -20 -7 -2
-10 -11 -7 -19 3 -9 0 -15 -10 -15 -8 0 -17 -7 -20 -15 -4 -8 -10 -15 -16 -15
-5 0 -7 4 -3 9 12 21 -15 20 -29 -1 -9 -12 -22 -23 -30 -24 -9 -1 -42 -19 -74
-41 -49 -31 -62 -46 -77 -86 -12 -33 -20 -45 -26 -36 -4 7 -6 16 -3 20 2 4 0
10 -5 13 -5 4 -12 -3 -16 -13 -6 -21 -32 -19 -47 3 -5 8 -8 8 -8 0 0 -7 -12
-19 -26 -29 -15 -9 -24 -12 -20 -7 9 14 -26 24 -61 17 -23 -4 -24 -4 -8 4 17
8 12 13 -11 10 -8 -1 -44 42 -44 54 0 5 7 7 15 3 8 -3 15 -1 15 4 0 6 -11 10
-25 10 -16 0 -25 6 -25 15 0 17 16 20 25 5 3 -5 15 -10 26 -10 10 0 19 -7 19
-15 0 -9 9 -15 23 -15 12 0 33 -3 47 -6 14 -3 5 4 -20 16 -48 23 -80 48 -80
62 0 5 4 7 9 3 17 -10 17 29 0 64 -16 33 -16 35 4 51 13 11 18 23 14 35 -6 14
-10 15 -22 5 -8 -6 -19 -9 -24 -6 -14 9 -2 101 20 159 11 26 19 55 19 64 0 27
-28 -16 -36 -55 -3 -18 -10 -35 -15 -38 -5 -3 -9 -15 -9 -27 -1 -12 -7 -39
-14 -59 -9 -25 -11 -52 -5 -88 10 -63 4 -86 -17 -65 -8 7 -14 21 -14 29 0 9
-6 16 -13 16 -11 0 -13 20 -11 87 2 59 -1 90 -9 95 -9 6 -9 8 1 8 6 0 12 6 12
13 0 6 16 45 35 84 39 81 42 92 19 89 -17 -3 -35 -26 -28 -37 2 -4 -3 -10 -12
-13 -9 -4 -14 -13 -10 -22 3 -8 2 -13 -3 -10 -5 3 -11 -1 -15 -9 -3 -8 -1 -17
4 -20 12 -8 -10 -45 -27 -45 -7 0 -15 -16 -19 -36 -4 -22 -10 -32 -16 -26 -11
11 39 142 77 201 20 32 22 41 11 50 -10 9 -17 6 -30 -13 -9 -14 -16 -28 -16
-30 0 -3 -18 -43 -41 -88 -35 -72 -41 -95 -48 -176 -3 -52 -3 -96 1 -98 4 -3
16 0 27 6 31 16 39 -9 10 -31 -13 -10 -27 -19 -31 -19 -4 0 -5 -17 -2 -37 3
-29 2 -33 -5 -18 -8 16 -10 17 -10 3 -1 -9 2 -24 5 -33 6 -13 9 -14 16 -3 7 9
8 7 5 -9 -6 -26 40 -101 80 -133 l26 -20 18 22 c11 11 19 25 19 30 0 5 5 6 10
3 7 -4 4 -19 -10 -42 -11 -19 -17 -39 -14 -45 9 -15 -11 -3 -60 36 -43 33 -97
112 -115 169 -7 20 -15 37 -18 37 -8 0 -154 -80 -185 -102 -31 -21 -38 -11
-10 15 9 10 53 40 97 68 44 28 82 53 84 55 3 3 9 47 23 184 3 23 -1 25 -40 28
-29 2 -41 7 -38 15 3 7 9 20 12 30 5 13 18 17 53 17 38 0 48 4 56 23 20 42 80
152 85 157 3 3 17 21 30 40 26 39 108 120 121 120 5 0 9 10 9 22 0 12 3 19 6
15 3 -3 31 10 62 28 77 45 163 79 250 100 41 10 69 21 62 25 -9 5 -8 9 2 13 8
3 20 31 27 62 14 64 40 128 41 105 1 -9 5 -6 10 8 13 30 46 29 52 -3z m1119
-715 c5 0 9 5 9 11 0 5 5 7 10 4 6 -3 10 -1 10 4 0 6 5 11 11 11 5 0 8 -4 5
-9 -3 -5 0 -14 8 -20 11 -9 15 -7 20 11 7 21 9 20 26 -17 11 -22 20 -33 20
-25 0 8 6 4 13 -11 17 -31 28 -133 17 -145 -5 -5 -10 -18 -12 -29 -1 -11 -7
-23 -12 -26 -18 -14 7 -29 48 -29 54 0 81 -26 80 -78 0 -44 -153 -713 -165
-727 -15 -15 10 106 102 505 53 229 54 258 7 258 -13 0 -101 6 -197 13 -206
15 -189 23 -221 -118 -12 -52 -24 -92 -27 -90 -9 10 39 187 58 211 14 18 33
26 71 31 29 4 58 12 65 17 7 5 42 8 78 6 36 -1 65 0 65 3 0 4 -34 9 -75 11
-82 4 -104 19 -105 71 0 15 -5 27 -10 27 -7 0 -7 6 -1 18 7 13 6 23 -1 30 -9
9 -9 12 0 12 7 0 12 15 12 39 0 22 5 43 11 47 8 5 10 -4 7 -30 -5 -47 6 -46
22 3 11 34 15 38 27 25 8 -8 19 -14 24 -14z m122 -356 c15 -3 27 -10 27 -16 0
-7 -24 -9 -70 -6 -38 3 -70 3 -70 -1 1 -16 18 -30 50 -39 22 -7 27 -11 14 -11
-11 -1 -21 -8 -21 -16 0 -10 7 -14 21 -10 12 3 15 2 9 -1 -19 -8 -16 -25 4
-22 10 2 19 -5 21 -16 3 -14 0 -17 -12 -13 -9 4 -16 2 -16 -2 0 -5 7 -11 15
-15 17 -6 11 -57 -12 -94 -8 -13 -12 -30 -9 -38 3 -8 1 -14 -4 -14 -5 0 -16
-26 -25 -57 -27 -99 -31 -103 -92 -103 -35 0 -52 4 -48 10 4 6 18 9 32 8 14
-2 28 2 29 7 2 6 -11 10 -28 10 -25 0 -32 4 -30 17 2 14 -2 15 -29 8 -18 -5
-36 -7 -40 -4 -8 5 -10 -3 -9 -33 0 -5 -21 -11 -47 -14 l-48 -6 57 -1 c31 -1
91 -7 133 -13 58 -8 80 -7 91 2 11 9 14 7 14 -15 0 -25 -2 -26 -52 -26 -72 1
-266 24 -275 33 -4 4 6 59 22 122 17 67 33 109 37 102 4 -7 5 2 2 18 -3 17 2
48 10 70 l15 40 1 -45 c2 -43 2 -44 12 -17 7 19 15 26 25 23 8 -3 11 -1 8 4
-3 6 -13 10 -21 10 -8 0 -14 5 -14 10 0 6 5 10 10 10 6 0 10 6 10 14 0 26 28
44 71 44 56 1 63 12 8 13 -36 1 -39 2 -19 8 23 7 22 9 -20 21 -56 17 -53 14
-45 40 7 22 9 22 144 16 75 -4 148 -9 164 -12z m-682 -36 c1 -22 1 -22 9 2 l7
25 9 -30 c4 -16 7 -37 6 -45 -1 -10 1 -11 4 -2 8 18 22 15 29 -8 3 -11 17 -23
31 -26 17 -4 24 -13 24 -30 0 -17 6 -24 20 -24 12 0 20 -7 20 -17 0 -15 2 -16
10 -3 8 12 10 11 10 -7 0 -14 6 -23 15 -23 8 0 15 -6 16 -12 0 -9 2 -8 6 1 4
10 10 5 19 -15 l12 -29 1 40 c1 22 6 47 12 55 8 11 9 8 5 -15 -13 -76 -26
-189 -21 -193 3 -3 5 3 5 13 0 10 2 16 5 13 3 -2 -2 -40 -10 -84 -8 -43 -19
-108 -24 -144 l-10 -65 4 80 3 80 -13 -55 c-17 -65 -11 -112 22 -196 l24 -61
92 -11 c51 -6 131 -15 179 -18 l87 -7 -9 39 c-12 50 -13 117 -1 110 4 -3 11
-29 15 -58 11 -86 17 -100 35 -94 12 5 11 2 -3 -9 -11 -8 -29 -13 -40 -10 -61
12 -326 39 -326 32 0 -3 7 -18 15 -33 13 -24 15 -98 15 -467 0 -290 3 -436 10
-432 6 4 10 94 10 238 0 133 4 238 10 247 6 10 10 11 10 3 0 -17 27 -17 34 0
3 6 3 0 0 -14 -3 -15 -1 -30 5 -33 6 -4 11 1 12 11 1 13 3 11 9 -7 4 -14 9
-86 11 -160 2 -74 6 32 9 235 l5 370 3 -376 2 -376 -29 5 c-21 3 -32 -1 -40
-15 -12 -23 -35 -152 -28 -159 2 -3 23 -6 46 -7 22 -1 41 -5 41 -9 0 -4 7 -8
16 -8 10 0 14 -6 10 -15 -3 -8 -1 -15 5 -15 6 0 7 -5 4 -10 -4 -6 -11 -8 -16
-5 -5 4 -9 -1 -9 -9 0 -9 5 -16 10 -16 6 0 10 -4 10 -8 0 -4 -8 -8 -19 -8 -15
0 -17 6 -13 43 3 28 1 43 -7 43 -6 0 -11 -7 -11 -16 0 -11 -6 -15 -19 -11 -14
3 -18 1 -14 -9 3 -8 0 -14 -7 -14 -7 0 -10 -7 -7 -15 4 -8 2 -17 -3 -20 -6 -4
-10 0 -11 7 0 7 -5 3 -11 -9 -6 -13 -17 -23 -24 -23 -7 0 -14 -5 -16 -11 -2
-5 -11 -7 -21 -3 -15 5 -17 14 -12 47 4 22 14 55 21 73 8 18 14 51 14 72 0 45
29 36 -245 78 -93 14 -173 27 -178 27 -4 1 -9 -35 -10 -81 -3 -70 -7 -86 -28
-108 -21 -24 -507 -352 -526 -356 -5 -1 -14 -7 -21 -15 -28 -28 -125 -48 -232
-47 -89 0 -156 10 -440 67 -184 37 -373 75 -420 83 -86 17 -133 34 -146 55 -4
8 0 7 15 -1 20 -10 134 -35 276 -60 28 -5 185 -37 350 -70 272 -56 309 -61
395 -57 93 4 177 28 165 47 -7 11 24 42 36 35 5 -4 9 -1 9 6 0 6 8 9 20 6 23
-6 36 8 19 19 -8 5 -9 3 -4 -6 6 -9 4 -11 -5 -5 -10 6 -7 14 15 32 15 13 33
22 41 19 7 -3 15 -1 18 5 2 5 3 4 2 -2 -1 -7 -12 -13 -24 -14 -23 -2 -44 -15
-23 -15 7 0 9 -5 5 -12 -4 -7 -3 -8 5 -4 6 4 8 12 5 18 -5 7 -1 9 9 5 10 -4
27 5 46 22 17 16 38 31 46 35 9 3 14 10 11 14 -3 5 1 9 9 9 8 0 11 -5 8 -11
-4 -6 3 -3 14 7 11 9 23 17 26 17 12 0 87 57 82 62 -3 3 1 5 8 5 21 0 186 112
198 135 16 31 14 212 -2 202 -4 -2 -16 14 -26 36 -20 44 -33 51 -33 18 0 -12
-3 -19 -6 -16 -3 4 0 32 8 63 10 46 14 52 19 33 6 -18 7 -15 8 15 1 20 5 37
10 37 22 0 30 124 40 625 l8 390 3 -345 4 -345 6 205 c4 113 8 287 9 387 l1
182 51 155 c48 148 68 185 70 134z m612 -1251 c6 4 24 8 40 8 l27 0 0 -249 0
-249 -42 7 c-23 4 -44 9 -47 12 -3 2 0 24 6 47 6 23 8 46 3 52 -11 14 -16 256
-10 535 l5 235 2 -203 c3 -158 6 -201 16 -195z m-1416 373 c127 -17 123 -15
120 -60 -1 -22 -5 -40 -9 -40 -3 0 -9 -13 -13 -29 -11 -49 -21 -52 -135 -36
-57 9 -108 19 -112 23 -8 8 15 100 33 135 11 20 14 20 116 7z m383 -530 c8 25
8 25 10 -5 2 -30 2 -30 10 -5 6 18 8 20 9 7 1 -10 6 -15 11 -12 6 4 10 -27 10
-84 0 -54 -4 -91 -10 -91 -5 0 -10 -8 -10 -17 0 -9 -3 -14 -6 -10 -3 3 -15 -3
-27 -14 -11 -10 -24 -19 -29 -19 -4 0 -8 39 -8 86 0 47 3 83 8 81 4 -3 6 20 5
51 -1 48 0 53 9 32 l11 -25 7 25z m-94 -68 c-2 -4 -7 -50 -11 -102 -10 -147
-22 -200 -55 -248 -19 -26 -29 -53 -28 -70 3 -36 -4 -46 -57 -82 -82 -56 -97
-53 -38 7 29 31 56 67 59 82 5 26 8 31 43 84 22 33 34 128 30 227 -3 62 -1 70
21 89 25 20 45 28 36 13z m1198 -373 c12 -61 7 -119 -10 -119 -8 0 -12 -4 -9
-10 4 -6 -1 -7 -11 -3 -13 5 -16 3 -11 -10 3 -8 -1 -21 -10 -28 -22 -19 -40
10 -42 69 -2 77 7 102 42 118 43 18 44 18 51 -17z m-814 11 c0 -18 -45 -54
-153 -126 -56 -37 -104 -70 -107 -73 -3 -3 -17 -13 -32 -21 -59 -33 -188 -124
-192 -137 -3 -7 -12 -10 -21 -7 -8 3 -15 1 -15 -4 0 -6 -34 -28 -75 -48 -69
-34 -85 -38 -178 -42 -70 -3 -131 1 -192 12 -49 10 -126 23 -170 31 -44 7
-134 23 -200 35 -66 11 -138 23 -160 26 -36 4 -87 17 -181 45 -17 5 -37 9 -44
9 -20 0 -100 40 -100 50 0 5 15 3 32 -5 18 -7 96 -25 173 -40 77 -14 272 -53
434 -85 308 -63 417 -73 506 -49 36 10 646 407 660 430 8 12 15 11 15 -1z
m-2910 -144 c30 -7 141 -30 245 -50 105 -20 211 -43 236 -51 26 -8 64 -15 85
-16 31 0 35 -2 19 -9 -11 -5 -32 -9 -48 -9 -41 -1 -49 -35 -41 -158 l7 -103
-31 0 c-58 0 -62 6 -62 84 0 43 -5 79 -12 88 -15 19 -92 41 -198 58 -41 7
-113 20 -159 30 -47 10 -92 17 -100 15 -12 -1 -18 -20 -25 -73 -7 -59 -12 -72
-27 -72 -42 0 -44 5 -41 128 4 159 19 172 152 138z m3305 -78 c-6 -120 -4
-124 74 -142 65 -15 94 -19 118 -17 6 0 16 31 23 69 12 71 33 123 28 67 -2
-19 4 -37 18 -52 22 -23 40 -32 29 -13 -4 6 -3 9 2 8 14 -5 55 30 48 41 -3 6
-1 11 5 11 6 0 9 4 6 8 -2 4 3 8 12 8 13 0 18 -9 18 -36 1 -34 -3 -38 -76 -87
l-77 -51 -79 14 c-43 7 -107 14 -140 14 -52 0 -62 -3 -67 -19 -4 -16 5 -20 72
-31 42 -7 92 -16 111 -21 32 -8 31 -8 -10 -4 -25 3 -73 8 -107 11 l-62 7 34
-104 c19 -58 37 -127 40 -155 7 -47 5 -52 -20 -72 -31 -24 -55 -28 -55 -9 0 6
-6 24 -14 38 -26 50 -46 124 -56 209 -6 47 -17 101 -25 121 -12 31 -12 43 2
90 23 80 78 141 116 131 4 -1 6 4 5 11 -2 6 3 11 10 10 6 -2 12 2 12 7 0 6 2
10 4 10 3 0 3 -33 1 -72z m-782 -191 c8 -18 22 -59 32 -92 48 -164 206 -520
234 -529 9 -3 -22 -4 -69 -2 -80 3 -275 47 -239 54 10 2 15 11 13 25 -2 12
-15 92 -29 178 -34 212 -31 322 11 387 18 27 29 22 47 -21z m-794 -69 c22 -18
44 -44 47 -58 4 -14 11 -30 16 -37 5 -7 5 -14 -1 -17 -18 -12 -34 -217 -17
-228 7 -5 4 -8 -8 -8 -29 0 -247 50 -281 65 -29 13 -29 13 -5 14 18 1 21 4 11
10 -11 7 -10 10 5 15 21 6 21 7 32 151 l7 89 45 18 c69 26 102 23 149 -14z"/>
<path d="M2989 4213 c-21 -3 -28 -11 -32 -36 -4 -18 -9 -43 -13 -56 -6 -20 -4
-23 9 -18 10 4 17 2 17 -3 0 -6 7 -10 15 -10 8 0 15 5 15 10 0 6 7 10 15 10 8
0 14 -3 14 -7 -1 -5 -1 -15 0 -23 1 -13 3 -13 10 -1 8 12 13 12 24 3 12 -10
17 -8 30 12 9 13 19 35 22 49 6 23 4 26 -27 30 l-33 4 38 1 c24 1 37 7 37 16
0 21 -66 31 -141 19z"/>
<path d="M2899 4192 c-26 -9 -54 -23 -63 -31 -9 -7 -16 -10 -16 -5 0 5 -4 5
-8 -1 -4 -5 -33 -23 -64 -39 -32 -16 -58 -35 -58 -43 0 -8 -5 -11 -10 -8 -6 3
-14 -4 -19 -17 -6 -13 -10 -19 -10 -15 -1 13 -70 -43 -92 -75 -31 -43 -14 -47
29 -6 42 40 90 70 76 46 -4 -7 -16 -19 -26 -26 -10 -8 -17 -20 -16 -27 2 -8
-6 -21 -17 -30 -19 -16 -19 -16 4 -4 22 10 23 10 18 -11 l-6 -22 25 23 c18 17
21 25 12 31 -9 6 -5 7 9 3 16 -4 23 -1 28 15 3 11 11 20 16 20 6 0 7 5 3 12
-4 6 -3 8 4 4 6 -3 13 -2 17 4 3 5 15 10 25 10 14 0 18 5 13 17 -5 13 -2 15
18 10 23 -6 23 -5 5 8 -17 13 -18 15 -3 15 9 0 17 5 17 10 0 6 -9 10 -20 10
-11 0 -20 4 -20 8 0 11 89 53 125 59 17 3 31 6 33 8 3 3 21 65 19 64 -1 0 -23
-8 -48 -17z"/>
<path d="M5005 1368 c-16 -14 -40 -30 -53 -37 -12 -7 -20 -17 -16 -23 4 -6 3
-8 -3 -5 -5 3 -22 -4 -38 -17 -40 -32 -26 -48 40 -44 40 2 58 -1 73 -15 20
-19 21 -18 27 25 4 23 5 65 3 92 l-3 49 -30 -25z"/>
<path d="M130 1049 c0 -66 -3 -88 -12 -83 -7 4 -8 3 -4 -4 4 -7 2 -12 -5 -12
-7 0 -10 -2 -7 -5 2 -3 20 2 38 11 40 21 138 15 255 -15 44 -11 114 -27 155
-36 41 -9 89 -20 105 -25 58 -17 110 -30 135 -35 14 -3 57 -12 95 -21 39 -8
88 -19 110 -24 22 -4 139 -33 260 -63 121 -30 270 -67 330 -82 61 -15 135 -33
165 -41 30 -8 66 -16 80 -18 14 -3 32 -7 40 -10 8 -3 56 -15 105 -26 152 -34
296 -68 395 -94 161 -41 248 -63 445 -110 105 -26 213 -53 240 -61 28 -8 84
-24 125 -36 41 -12 104 -32 139 -46 113 -43 209 -43 254 0 13 12 38 43 55 69
18 26 49 63 70 83 86 83 147 135 157 135 5 0 26 15 46 33 19 17 47 38 62 46
15 8 29 22 32 32 3 10 19 21 36 24 16 4 27 10 24 15 -3 4 3 14 12 21 14 12 16
12 9 -1 -5 -8 4 -2 20 15 16 16 29 34 29 40 0 5 9 9 20 8 18 -1 45 17 107 71
14 13 34 29 45 34 10 6 14 14 10 18 -5 5 -11 4 -15 -2 -11 -17 -40 -24 -46
-11 -4 11 -7 1 -5 -19 0 -3 -19 -16 -43 -29 -24 -13 -42 -30 -42 -38 1 -9 -4
-13 -12 -10 -16 6 -75 -27 -68 -39 3 -4 -2 -8 -10 -8 -9 0 -16 -6 -16 -12 0
-10 -3 -9 -9 1 -7 11 -13 9 -29 -7 -11 -11 -24 -17 -28 -14 -4 4 -4 2 0 -5 4
-7 -11 -20 -39 -34 -38 -19 -43 -25 -32 -37 10 -13 9 -14 -13 -2 -14 7 -22 9
-18 5 8 -8 -48 -49 -82 -60 -12 -4 -19 -9 -16 -12 9 -9 -15 -33 -26 -27 -6 4
-13 3 -17 -2 -8 -12 -56 -40 -121 -72 -49 -23 -66 -26 -155 -26 -87 1 -142 10
-420 73 -176 40 -381 86 -455 103 -74 16 -164 37 -200 45 -36 8 -101 23 -145
33 -123 27 -513 116 -675 154 -80 19 -210 49 -290 66 -80 17 -167 37 -195 45
-27 7 -126 30 -220 50 -93 21 -186 41 -205 45 -19 5 -75 17 -125 28 -49 12
-139 32 -200 46 -60 13 -130 32 -154 40 -24 9 -45 16 -47 16 -2 0 -4 -41 -4
-91z"/>
<path d="M5023 803 c-4 -10 -15 -24 -25 -31 -10 -8 -39 -53 -63 -100 -53 -102
-103 -173 -133 -188 -12 -6 -19 -13 -16 -16 6 -7 -79 -68 -94 -68 -6 0 -12 -7
-16 -15 -3 -8 -12 -15 -20 -15 -7 0 -16 -9 -19 -19 -2 -10 -21 -27 -41 -36
-20 -10 -36 -21 -36 -26 0 -5 -6 -9 -13 -9 -8 0 -22 -9 -32 -20 -10 -11 -26
-20 -35 -20 -9 0 -25 -9 -35 -20 -10 -11 -28 -20 -40 -20 -12 0 -34 -9 -48
-20 -14 -11 -32 -17 -41 -14 -10 4 -26 -2 -38 -12 -12 -11 -18 -13 -14 -7 5 9
2 11 -8 7 -9 -3 -16 -10 -16 -14 0 -4 -22 -18 -50 -31 -27 -13 -50 -27 -50
-30 0 -3 -11 -23 -25 -43 l-24 -36 514 0 515 0 0 395 0 395 -36 15 c-46 19
-53 19 -61 -2z"/>
<path d="M7 573 c-4 -3 -7 -134 -7 -290 l0 -283 324 0 325 0 -6 37 c-3 21 -9
40 -13 43 -9 6 -17 41 -35 148 -15 86 -28 125 -52 150 -7 7 -13 18 -13 23 0 5
-11 15 -25 21 -14 6 -25 16 -25 23 0 13 -36 26 -132 49 -66 17 -138 43 -190
72 -26 14 -139 20 -151 7z"/>
<path d="M1252 250 c-15 -12 -22 -36 -28 -91 -4 -41 -7 -78 -6 -82 2 -5 -2
-24 -7 -43 l-9 -34 591 1 c340 0 583 4 572 9 -11 5 -33 9 -48 9 -15 1 -41 7
-56 15 -25 13 -123 41 -176 50 -11 2 -47 12 -80 21 -33 9 -73 19 -90 21 -16 3
-52 11 -80 19 -27 8 -77 19 -110 25 -33 7 -71 16 -83 21 -57 23 -176 49 -220
49 -26 0 -52 4 -57 9 -18 17 -92 17 -113 1z"/>
</g>
</svg>
