<?xml version="1.0" standalone="no"?>
<!DOCTYPE svg PUBLIC "-//W3C//DTD SVG 20010904//EN"
 "http://www.w3.org/TR/2001/REC-SVG-20010904/DTD/svg10.dtd">
<svg version="1.0" xmlns="http://www.w3.org/2000/svg"
 width="512.000000pt" height="512.000000pt" viewBox="0 0 512.000000 512.000000"
 preserveAspectRatio="xMidYMid meet">
<metadata>
Created by potrace 1.16, written by Peter Selinger 2001-2019
</metadata>
<g transform="translate(0.000000,512.000000) scale(0.100000,-0.100000)"
fill="#000000" stroke="none">
<path d="M47 5093 c-3 -15 -6 -194 -6 -397 -1 -204 -4 -372 -6 -375 -14 -13
-17 32 -17 293 0 158 -4 299 -8 314 -5 15 -9 -908 -9 -2050 l-1 -2078 70 0
c61 0 70 2 70 18 0 10 -5 23 -12 30 -8 8 -8 12 -1 12 8 0 11 137 12 478 0 262
2 518 5 567 5 85 7 92 36 118 30 27 63 34 87 19 7 -4 21 -27 31 -51 19 -42 20
-42 26 -16 4 15 12 24 19 22 7 -2 20 0 29 4 9 5 54 13 100 19 217 24 345 42
488 69 85 16 173 33 195 37 22 4 43 7 48 6 4 -1 7 4 7 10 0 10 2 10 8 1 6 -10
13 -9 33 1 l26 13 -8 -49 c-18 -114 -45 -148 -118 -153 -21 -1 -42 -4 -47 -7
-5 -3 -35 -6 -66 -7 -51 -1 -58 1 -58 18 0 10 7 24 15 31 21 17 19 50 -3 50
-9 0 -50 -9 -90 -20 -40 -11 -106 -25 -147 -31 -41 -5 -100 -19 -132 -30 -71
-24 -90 -24 -103 1 -16 30 -43 24 -80 -17 -33 -36 -34 -36 -43 -15 -14 30 -29
28 -67 -10 -17 -18 -30 -26 -29 -18 5 26 -12 94 -28 113 -9 9 -23 17 -31 17
-12 0 -11 -5 5 -23 25 -26 23 -76 -4 -116 -10 -14 -18 -30 -18 -36 0 -5 -9
-11 -20 -12 -20 -3 -20 -3 0 6 17 8 15 9 -12 8 -17 -1 -29 -6 -25 -11 3 -5 4
-217 3 -472 -2 -318 1 -464 8 -469 8 -4 11 121 11 419 0 272 4 426 10 426 5 0
12 -10 15 -23 3 -12 4 -217 3 -456 -2 -337 -6 -435 -15 -439 -8 -2 -13 6 -13
22 0 13 -4 28 -10 31 -6 4 -10 -37 -10 -114 0 -74 4 -121 10 -121 6 0 10 31
10 73 l0 73 65 -4 c36 -2 113 -1 171 3 96 6 105 9 101 25 -5 20 11 30 48 30
40 0 57 -10 44 -26 -12 -14 -7 -18 31 -26 14 -3 14 -14 1 -100 -10 -69 -18
-98 -28 -98 -9 0 -13 -15 -13 -54 0 -29 -3 -68 -6 -85 -5 -26 -3 -32 17 -40
23 -9 22 -10 -9 -10 -33 -1 -33 -1 -32 -49 1 -26 1 -51 -1 -57 -1 -5 -2 -17
-3 -25 -1 -8 -10 -15 -20 -15 -16 0 -22 11 -31 58 -6 31 -17 63 -23 69 -18 18
-14 38 8 38 18 0 20 7 20 85 l0 84 -265 -2 -265 -2 0 -297 0 -298 340 0 339 0
4 123 3 122 2 -122 2 -123 700 0 700 0 1 23 c0 12 2 36 4 52 2 17 6 122 10
235 4 113 11 215 17 228 l11 22 612 0 c512 0 614 -2 631 -14 10 -8 16 -18 12
-21 -4 -4 -3 -16 3 -26 11 -22 -13 -89 -33 -89 -10 0 -10 -2 -1 -8 8 -5 9 -19
4 -45 -6 -25 -5 -37 2 -37 17 0 -2 -14 -36 -27 -18 -6 -24 -12 -14 -12 18 -1
25 -21 7 -21 -5 0 -10 -4 -10 -10 0 -5 8 -10 18 -10 12 0 10 -4 -8 -13 -14 -7
-25 -19 -25 -27 -1 -8 -5 -14 -10 -13 -6 1 -10 -12 -11 -28 -1 -15 3 -26 7
-23 5 3 8 -5 6 -18 -1 -13 -9 -26 -17 -30 -8 -4 176 -8 410 -9 483 -2 456 -2
466 -11 4 -5 -202 -9 -457 -10 -255 0 -444 -4 -419 -8 25 -4 38 -8 29 -8 -9
-1 -19 -8 -22 -16 -4 -10 0 -12 15 -8 14 3 19 1 14 -6 -5 -9 216 -12 903 -12
l911 0 0 300 0 301 -231 -3 -231 -3 -1 -85 c-1 -82 0 -85 21 -83 12 2 22 -2
22 -7 0 -6 -21 -10 -47 -10 -27 0 -43 -4 -36 -8 23 -14 11 -161 -14 -169 -7
-3 -10 3 -6 15 2 11 -3 32 -12 46 -10 14 -14 26 -9 26 4 0 3 5 -4 12 -7 7 -12
20 -12 31 0 10 -7 25 -15 34 -18 17 -11 33 13 33 15 0 17 11 17 77 0 43 -4 81
-9 84 -5 4 -553 6 -1218 5 -665 -1 -1211 1 -1214 5 -2 4 -7 54 -11 111 -5 87
-4 101 8 93 8 -5 30 -10 49 -10 l35 0 -1 154 c0 110 -4 156 -12 159 -7 2 -12
24 -12 52 0 27 -4 51 -8 54 -5 3 -9 -55 -10 -127 -3 -199 -10 -257 -32 -257
-20 0 -24 20 -41 210 -13 155 -12 149 -21 144 -12 -8 -9 21 4 34 8 8 8 15 1
24 -6 7 -16 44 -22 83 -11 60 -10 71 3 81 20 14 20 24 0 24 -13 0 -15 7 -10
38 4 20 9 63 12 95 6 54 8 57 33 57 14 -1 37 -9 49 -20 21 -17 24 -31 29 -117
3 -54 7 -100 9 -102 2 -2 4 39 4 91 l0 96 73 7 c39 4 77 11 82 15 6 5 21 8 35
7 14 0 35 2 47 6 17 6 22 4 26 -15 4 -20 4 -20 6 5 1 31 -10 29 186 27 67 -1
115 -6 123 -13 12 -10 14 -49 10 -225 -3 -141 -9 -217 -17 -225 -8 -8 -11 -8
-11 1 0 7 -6 12 -14 12 -18 0 -49 -47 -36 -55 14 -9 12 -45 -2 -45 -10 0 -10
-2 -1 -8 8 -5 11 -45 10 -130 -2 -116 -1 -122 18 -124 11 0 0 -4 -25 -8 -29
-4 5 -7 95 -7 87 0 125 3 100 7 -30 5 -18 7 47 7 49 0 85 -4 82 -9 -4 -6 140
-8 352 -5 202 2 276 1 169 -2 -186 -7 -183 -7 105 -8 162 0 284 2 270 6 -14 5
124 7 305 6 190 -1 335 2 342 7 6 5 9 16 6 24 -7 19 20 28 61 20 28 -5 33 -10
29 -26 -4 -16 0 -20 18 -20 13 0 65 -3 114 -6 50 -3 105 -3 122 1 37 7 44 30
13 38 -20 5 -20 14 -20 1424 0 780 -2 1483 -4 1563 -2 80 -4 405 -5 723 l-1
577 -35 0 -35 0 0 -1787 c0 -1670 -5 -2202 -19 -2187 -3 3 -8 648 -11 1432
l-6 1427 -2 -1334 c-1 -734 -4 -1332 -7 -1329 -3 2 -5 389 -5 859 l-1 854
-1314 -3 -1314 -2 11 -30 c5 -17 14 -32 18 -35 5 -3 586 -7 1291 -8 1015 -2
1283 -5 1287 -14 3 -10 -257 -13 -1277 -13 -1018 0 -1281 -3 -1281 -12 0 -7 9
-61 21 -119 21 -105 21 -106 50 -107 16 0 29 4 29 9 0 20 20 -3 21 -24 1 -17
2 -18 6 -4 2 9 13 17 24 17 11 0 17 5 14 10 -3 6 -2 10 3 10 5 0 14 -10 20
-22 10 -22 11 -22 11 -3 1 33 53 28 62 -5 4 -16 7 -19 8 -7 1 9 9 17 19 18 14
0 14 2 -3 9 -19 8 -19 9 3 9 21 1 26 -8 23 -36 -3 -22 9 -14 19 11 7 18 14 23
29 19 12 -3 21 -8 21 -12 0 -13 75 -5 86 9 10 12 14 12 29 0 24 -20 43 -21 50
-2 5 14 7 14 16 2 8 -13 10 -13 19 0 8 12 10 9 10 -13 0 -26 1 -27 16 -12 9 9
23 14 31 11 8 -3 45 -7 81 -8 l67 -1 -55 -7 c-50 -6 -46 -7 38 -8 62 -1 92 2
92 9 0 8 4 8 13 2 18 -15 200 -14 209 0 6 9 8 9 8 0 0 -10 24 -13 85 -13 l85
0 2 -225 c3 -283 3 -388 0 -569 l-2 -145 -446 -1 c-246 0 -451 -3 -455 -6 -5
-3 -9 5 -9 18 -1 20 -3 18 -15 -10 -8 -18 -26 -37 -42 -43 -41 -17 -106 -19
-126 -4 -15 11 -11 12 28 8 56 -7 96 9 118 46 18 31 25 99 7 71 -8 -13 -10
-12 -10 4 0 13 -5 17 -20 13 -11 -3 -20 -1 -20 4 0 5 10 9 23 9 20 1 20 2 5
11 -19 11 -24 29 -9 29 15 0 42 -31 36 -41 -4 -5 1 -6 9 -3 11 4 16 -4 19 -33
3 -37 4 -36 5 8 1 31 7 49 17 53 8 3 15 17 15 31 0 23 -2 24 -21 15 -19 -11
-20 -10 -10 9 9 16 8 22 -5 29 -11 6 -13 12 -6 16 6 4 20 -2 31 -13 16 -16 20
-17 25 -4 8 21 8 23 -8 23 -11 0 -29 33 -23 43 1 2 -6 15 -16 30 -9 15 -14 27
-9 27 5 0 27 24 49 53 94 125 177 232 183 237 3 3 17 21 30 40 13 19 37 48 52
64 38 40 37 64 -4 70 -93 15 -185 27 -293 41 -66 8 -136 17 -157 21 -42 7 -32
18 -150 -146 -46 -63 -147 -200 -223 -303 -77 -104 -160 -217 -185 -252 -41
-59 -60 -77 -60 -57 0 4 30 47 66 96 36 48 63 90 60 93 -3 3 1 18 10 34 16 32
13 37 -9 14 -13 -13 -18 -12 -39 5 -12 11 -18 19 -12 20 5 0 15 -5 22 -12 7
-7 12 -8 12 -2 0 5 -21 21 -45 36 -41 25 -45 25 -45 9 0 -10 10 -25 23 -34 59
-40 91 -93 50 -85 -10 2 -17 11 -17 21 1 9 -2 14 -7 12 -4 -3 -12 2 -17 11 -6
10 -16 15 -25 11 -11 -4 -14 -2 -11 7 3 7 -2 16 -11 20 -9 3 -13 2 -10 -4 3
-6 2 -10 -3 -10 -18 0 -21 13 -6 35 8 12 12 29 9 38 -4 9 3 24 16 36 18 17 20
23 10 35 -12 15 -6 40 7 32 4 -2 7 9 7 25 1 16 -3 29 -7 29 -4 0 -8 8 -8 17 0
13 3 14 12 5 7 -7 43 -12 90 -12 49 0 78 -4 78 -11 0 -6 -9 -8 -21 -4 -18 6
-19 5 -8 -13 20 -33 -1 -50 -53 -43 -34 5 -42 10 -40 24 2 10 -3 17 -12 17
-30 0 4 -49 38 -56 45 -8 68 -28 64 -56 -2 -16 -10 -23 -26 -24 -16 -1 -21 3
-18 12 3 8 -1 14 -10 14 -8 0 -25 7 -38 15 -21 14 -24 14 -29 0 -5 -10 5 -21
31 -34 38 -20 76 -56 83 -79 3 -8 18 5 36 31 18 24 29 47 26 51 -3 3 -1 6 7 6
10 0 10 3 -1 18 -7 9 -9 14 -5 10 10 -9 41 30 32 39 -3 4 -6 1 -6 -6 0 -7 -5
-9 -12 -4 -7 4 -19 8 -26 9 -21 4 -26 12 -15 26 19 24 28 66 43 207 6 52 12
97 15 99 2 3 9 -6 14 -19 9 -21 10 -22 10 -4 1 11 -6 30 -14 42 -12 17 -13 30
-5 70 17 76 17 108 0 98 -11 -7 -16 16 -24 100 -15 153 -29 209 -59 240 -35
36 -74 46 -57 15 13 -25 -1 -27 -35 -4 -13 9 -29 13 -35 9 -5 -3 -10 -1 -10 4
0 6 -5 11 -11 11 -23 0 -38 36 -39 89 0 52 1 53 18 33 24 -28 150 -72 185 -65
22 4 27 2 27 -15 0 -13 10 -24 30 -31 29 -9 30 -9 29 17 0 24 -1 25 -9 7 -8
-18 -9 -17 -9 8 -1 16 3 26 9 22 6 -4 10 23 10 75 0 52 -4 79 -10 75 -5 -3
-10 1 -10 10 0 9 5 13 10 10 6 -3 10 -1 10 4 0 6 4 11 9 11 5 0 7 -40 5 -90
-2 -76 0 -91 14 -100 16 -9 16 -9 0 -10 -11 0 -16 -7 -15 -20 1 -23 -3 -22
105 -24 77 -2 82 -1 82 19 0 17 -6 20 -43 19 -23 -1 -51 2 -62 7 -13 5 1 8 43
8 67 1 65 -1 62 69 -1 26 3 42 10 42 6 0 10 -8 9 -17 -3 -31 1 -44 11 -38 5 3
8 38 6 78 -3 76 1 107 14 107 4 0 6 -16 3 -35 -2 -23 1 -35 9 -35 9 0 9 -3 0
-12 -7 -7 -12 -22 -12 -34 0 -17 7 -24 28 -27 l27 -4 -27 -2 c-21 -1 -28 -6
-28 -21 0 -25 29 -27 31 -2 2 25 17 -76 18 -121 l1 -39 -102 7 c-57 4 -115 8
-131 10 -15 1 -29 -1 -32 -5 -2 -3 5 -56 16 -116 17 -92 18 -121 10 -184 -16
-113 -40 -325 -47 -420 -4 -47 -10 -87 -14 -90 -4 -3 1 -13 10 -23 17 -17 20
-14 84 74 74 103 72 95 56 260 -11 114 -27 197 -42 216 -5 6 -11 36 -13 65 -2
29 -4 53 -5 53 -1 0 -4 12 -5 27 -2 14 -11 40 -19 57 -9 16 -16 32 -16 36 0 3
596 5 1324 5 l1324 0 6 23 c3 12 6 408 6 880 l0 858 -22 -3 -23 -3 2 -595 c1
-327 3 -715 3 -862 1 -148 -2 -268 -7 -268 -10 0 -12 152 -14 1151 -1 443 -4
818 -6 833 -5 26 -7 26 -87 26 l-82 0 -1 -36 c-1 -40 -21 -94 -34 -94 -5 0 -9
29 -9 65 0 58 -2 65 -19 65 -15 0 -19 -6 -17 -23 1 -13 4 -27 7 -32 4 -10 3
-164 -3 -245 -3 -40 -6 -44 -28 -44 -25 0 -25 1 -25 87 0 58 5 91 13 95 7 5
13 40 16 85 l4 77 -159 0 -159 0 -2 -92 c-1 -51 -3 -291 -4 -533 -2 -616 -3
-665 -11 -665 -7 0 -14 520 -14 1078 l0 212 -84 0 -85 0 0 -334 c0 -213 -4
-337 -10 -341 -7 -4 -10 109 -10 332 l0 338 -55 2 -55 1 0 -614 c0 -403 -3
-614 -10 -614 -7 0 -10 212 -10 615 l0 615 -35 0 -35 0 0 -615 c0 -429 -3
-615 -11 -615 -6 0 -8 9 -4 20 7 21 -10 28 -18 8 -3 -7 -6 6 -6 29 -1 23 3 45
9 48 6 3 10 86 10 206 0 127 -4 198 -10 194 -6 -4 -10 16 -10 49 0 30 5 58 10
61 7 4 9 112 8 308 l-3 302 -27 3 c-19 2 -28 -2 -31 -15 -4 -17 -5 -17 -6 0
-2 25 -31 21 -31 -4 0 -12 -5 -19 -13 -16 -6 2 -11 11 -9 21 2 13 -7 16 -53
16 -48 0 -55 -2 -55 -20 0 -11 -4 -20 -10 -20 -5 0 -10 9 -10 20 0 20 -5 21
-117 18 -93 -2 -117 -6 -115 -17 1 -7 3 -69 3 -137 l0 -123 31 6 c24 5 30 3
26 -8 -2 -8 -15 -16 -29 -18 -13 -1 -27 -8 -31 -15 -9 -13 -10 4 -8 80 1 38
-3 53 -14 57 -18 7 -18 8 -46 -253 -12 -107 -25 -213 -30 -235 -5 -22 -10 -59
-10 -82 0 -42 1 -42 25 -31 17 8 27 22 31 47 7 35 7 35 18 11 10 -23 12 -20
22 35 l12 60 1 -47 c1 -55 15 -63 25 -15 6 28 8 30 17 14 6 -10 8 -24 5 -32
-3 -8 0 -16 7 -18 9 -3 9 -9 1 -24 -9 -15 -8 -23 3 -38 12 -17 15 -18 23 -5 5
8 6 26 3 41 -4 24 -2 27 27 31 20 3 37 -1 46 -9 20 -21 10 -30 -27 -25 -26 4
-30 2 -27 -14 2 -13 12 -19 28 -19 20 0 27 -7 36 -34 16 -49 44 -50 45 -3 0
30 2 33 9 17 5 -11 9 -14 9 -7 1 6 6 12 11 12 6 0 10 -65 10 -174 0 -106 -4
-177 -10 -181 -6 -4 -10 6 -11 22 0 15 -4 37 -9 48 -7 17 -9 16 -10 -10 -1
-26 -2 -28 -13 -14 -11 15 -15 13 -35 -17 -24 -37 -28 -49 -12 -39 5 3 10 2
10 -3 0 -12 -29 -24 -40 -17 -4 3 -13 -2 -20 -10 -11 -13 -14 -13 -26 2 -12
16 -13 16 -14 -9 0 -24 -4 -28 -29 -28 -40 0 -61 -9 -61 -27 0 -8 4 -11 10 -8
5 3 18 1 27 -4 15 -8 15 -11 3 -12 -8 -1 -22 -1 -32 0 -9 1 -19 -3 -23 -9 -10
-17 -85 -13 -85 5 0 8 -6 15 -12 15 -10 0 -9 3 1 9 21 13 6 27 -26 25 -15 -1
-36 -3 -47 -3 -12 -1 -16 -6 -12 -16 3 -10 -1 -15 -11 -15 -33 0 2 -19 42 -23
30 -3 24 -4 -25 -6 -36 -1 -83 -9 -105 -16 l-40 -13 42 5 c27 4 48 1 58 -7 10
-9 15 -9 15 -1 0 6 14 11 31 11 16 0 28 -4 25 -9 -4 -5 19 -11 49 -13 40 -2
55 1 55 10 0 19 88 13 100 -7 6 -10 10 -11 10 -3 0 6 6 12 14 12 9 0 13 -7 11
-20 -5 -26 2 -25 27 3 14 16 21 18 25 9 4 -10 8 -10 19 -1 10 8 14 8 14 0 0
-6 6 -11 14 -11 8 0 17 -7 20 -16 10 -26 7 -284 -3 -284 -5 0 -8 11 -5 25 2
14 0 25 -6 25 -5 0 -10 -7 -10 -15 0 -8 -4 -15 -10 -15 -5 0 -10 9 -10 20 0
11 -4 20 -10 20 -5 0 -10 -9 -10 -20 0 -11 -4 -20 -10 -20 -5 0 -10 10 -10 23
l-1 22 -19 -24 c-11 -12 -17 -27 -14 -32 13 -22 -52 3 -68 26 -4 6 -8 0 -8
-12 0 -17 -6 -23 -21 -23 -18 0 -21 5 -17 29 5 38 -4 40 -120 33 -50 -2 -99
-1 -109 3 -32 14 -43 14 -43 -2 0 -9 7 -21 16 -27 18 -14 9 -46 -13 -46 -9 0
-13 -6 -9 -15 3 -8 6 -80 7 -159 l1 -144 42 -4 c57 -4 74 0 79 20 4 15 5 15 6
0 1 -13 10 -18 30 -18 28 0 30 2 34 48 3 46 3 45 5 -11 l2 -59 -100 4 c-55 1
-100 0 -100 -4 0 -5 -104 -8 -231 -8 -191 0 -233 3 -245 15 -9 8 -11 15 -5 15
8 0 10 48 9 150 -2 83 0 150 5 150 4 0 7 -7 7 -15 0 -8 5 -15 10 -15 6 0 9 12
7 28 -3 18 -9 26 -20 24 -17 -3 -32 31 -22 49 4 6 13 8 21 5 8 -3 14 1 14 10
0 9 -5 12 -12 8 -6 -4 -17 1 -25 11 -10 14 -13 15 -15 4 0 -8 -2 -18 -3 -24
-2 -5 -3 -21 -4 -35 -1 -22 -3 -23 -12 -7 -6 9 -15 15 -20 12 -5 -4 -7 -11 -4
-16 4 -5 -1 -9 -9 -9 -9 0 -15 3 -15 8 1 4 1 21 0 37 -1 24 -6 31 -21 31 -11
0 -20 -4 -20 -8 0 -4 7 -8 15 -8 10 0 15 -10 15 -31 0 -17 -4 -28 -10 -24 -5
3 -10 14 -10 25 0 21 -26 34 -36 19 -17 -29 -134 31 -131 66 1 11 6 23 10 26
5 3 2 9 -7 12 -14 6 -16 -5 -16 -73 0 -66 -3 -80 -15 -80 -13 0 -15 8 -10 40
5 32 3 40 -10 40 -8 0 -15 5 -15 10 0 6 7 10 15 10 19 0 21 56 2 63 -8 4 -9 8
-1 14 5 4 10 34 11 66 0 60 8 81 22 58 5 -7 14 -10 20 -7 6 4 11 2 11 -5 0 -9
3 -9 14 0 11 9 15 9 19 -1 5 -11 11 12 9 33 0 3 19 5 44 5 35 -1 46 -5 51 -21
6 -19 6 -19 13 1 8 20 14 20 291 18 181 -2 268 0 239 6 -25 5 -61 9 -81 9 -20
1 -42 8 -49 16 -10 12 -16 13 -29 3 -13 -10 -12 -8 1 8 18 20 17 20 -12 16
-17 -2 -30 -10 -30 -18 0 -11 -18 -14 -75 -14 -61 0 -75 3 -75 16 0 8 -5 12
-11 9 -6 -4 -13 2 -16 13 -6 24 -30 32 -103 32 -70 0 -100 -8 -100 -27 0 -20
-25 -43 -47 -43 -31 0 -59 25 -47 41 8 11 3 22 -21 44 -17 17 -35 31 -40 33
-15 3 -12 47 3 44 20 -4 14 16 -10 29 -20 11 -20 13 -4 24 14 11 15 17 5 39
-9 20 -10 32 -1 49 15 28 12 67 -5 67 -7 0 -13 5 -13 10 0 6 7 10 15 10 12 0
15 19 15 108 0 59 4 103 8 97 4 -5 13 -10 20 -11 6 -1 23 -2 37 -2 41 -3 28
-22 -15 -22 -36 0 -40 -3 -40 -24 0 -14 5 -28 11 -32 8 -4 7 -9 -2 -15 -11 -6
-11 -19 -2 -61 6 -29 7 -57 3 -63 -9 -12 -9 -44 -1 -43 20 2 22 -4 6 -22 -23
-25 -19 -28 25 -19 22 4 27 7 13 8 -31 1 -29 19 5 34 34 15 43 27 36 50 -3 11
0 17 10 17 9 0 16 5 16 10 0 6 -7 10 -16 10 -24 0 -7 17 24 23 38 8 39 43 0
51 -15 3 -28 10 -28 16 0 11 10 13 58 10 27 -1 32 2 32 20 0 12 -3 19 -8 16
-12 -7 -73 8 -73 19 0 15 58 24 70 12 8 -8 11 -4 11 12 0 16 -4 21 -15 17 -9
-3 -15 0 -15 9 0 9 6 12 15 9 10 -4 15 0 15 15 0 12 -6 21 -12 22 -7 1 -22 2
-32 3 -37 2 -30 26 8 26 25 0 36 4 36 15 0 12 -8 14 -40 9 -36 -6 -40 -5 -40
15 0 18 6 21 39 21 l38 0 2 50 1 50 -46 0 c-57 0 -56 23 2 30 41 5 41 4 36 67
-1 14 -8 20 -19 19 -28 -5 -73 14 -73 30 0 8 7 14 15 14 8 0 15 -7 15 -15 0
-10 10 -15 29 -15 l30 0 -4 143 c-2 78 -4 150 -5 160 0 15 -11 17 -85 17 -81
0 -85 -1 -86 -22 l0 -23 -9 23 c-11 26 -60 32 -60 7 0 -18 -43 -37 -65 -29
-25 10 -5 26 24 19 21 -4 28 -2 28 10 0 11 -12 15 -52 15 l-51 0 1 -122 c0
-103 3 -123 15 -123 8 0 15 -7 15 -15 0 -14 -9 -16 -45 -10 -41 7 -80 -1 -80
-15 0 -8 -3 -14 -7 -14 -23 4 -32 -3 -27 -18 5 -15 4 -16 -5 -3 -16 22 -14 30
12 40 l22 9 -23 0 c-14 1 -22 6 -19 14 2 8 25 12 63 12 l59 0 0 100 c0 148 2
145 -56 145 -42 0 -49 -3 -49 -20 0 -11 -4 -20 -10 -20 -5 0 -10 9 -10 20 0
17 -7 20 -39 20 -32 0 -40 -4 -44 -22 -4 -13 -4 -32 -2 -43 2 -11 4 -37 4 -58
1 -23 5 -36 13 -35 6 2 14 -5 16 -14 2 -10 -1 -18 -7 -18 -6 0 -11 5 -11 11 0
5 -4 7 -10 4 -5 -3 -10 -16 -10 -27 0 -12 -3 -18 -7 -14 -4 4 -8 53 -8 109 l0
102 -42 3 -43 3 0 -304 0 -304 39 -11 c48 -15 54 -15 45 0 -5 8 0 9 14 6 15
-4 22 -2 22 9 0 20 24 11 28 -10 3 -13 -4 -17 -25 -17 l-28 -1 24 -19 c12 -11
27 -17 32 -14 5 3 8 0 7 -6 -2 -6 6 -18 17 -25 20 -14 20 -12 20 161 0 97 3
178 8 181 4 2 7 -30 7 -72 0 -75 1 -77 23 -72 12 3 31 2 42 -3 17 -6 16 -8
-12 -14 -18 -4 -37 -5 -42 -2 -12 8 -17 -47 -13 -142 l4 -72 28 5 c24 4 29 2
27 -15 -1 -18 -2 -18 -19 -3 -25 23 -22 7 6 -30 13 -18 31 -48 39 -67 14 -33
15 -27 17 120 3 305 6 379 13 386 9 9 9 1 8 -187 l-1 -156 31 5 c24 4 30 1 27
-9 -3 -9 -15 -13 -31 -11 -19 2 -27 -1 -27 -12 0 -11 9 -16 30 -16 20 0 30 -5
30 -15 0 -10 -10 -15 -30 -15 -23 0 -30 -4 -30 -20 0 -17 7 -20 40 -20 22 0
40 -4 40 -10 0 -11 -39 -23 -59 -18 -8 2 -14 -8 -16 -24 -3 -24 1 -29 28 -37
32 -9 32 -9 5 -10 -16 -1 -28 -5 -28 -11 0 -5 8 -9 18 -8 9 1 34 0 55 0 59 -3
43 -22 -18 -22 -54 0 -55 -1 -55 -29 0 -28 1 -28 48 -25 33 2 41 0 27 -6 -11
-5 -33 -9 -48 -9 -28 -1 -29 -2 -22 -42 4 -26 3 -50 -4 -63 -9 -16 -9 -29 -1
-51 11 -27 13 -29 24 -12 16 21 56 23 56 2 0 -8 -9 -15 -21 -15 -11 0 -17 -4
-14 -10 4 -6 -5 -10 -21 -10 -15 0 -33 -8 -40 -17 -12 -16 -14 -15 -15 12 -1
17 -2 36 -2 42 1 7 -3 10 -8 7 -5 -2 -6 -24 -3 -47 5 -32 -2 -65 -29 -142 -48
-138 -53 -163 -31 -161 9 0 19 -5 21 -11 4 -12 -30 -19 -67 -14 -132 20 -163
32 -284 111 -96 63 -103 80 -86 210 7 56 10 130 7 172 -4 44 -2 85 5 104 13
36 4 92 -18 120 -14 18 -15 18 -4 -4 6 -13 9 -30 6 -38 -3 -8 -1 -14 4 -14 6
0 10 -15 9 -32 0 -33 -1 -33 -11 -8 -24 59 -35 75 -64 107 -34 35 -75 43 -117
22 -18 -9 -20 -9 -10 1 7 7 38 17 70 21 52 7 61 6 83 -14 l25 -22 -24 27 c-50
57 -139 42 -185 -31 -35 -54 -33 -58 11 -22 40 33 94 41 124 18 16 -12 49 -69
49 -85 0 -5 -11 -14 -25 -20 -14 -6 -25 -19 -25 -29 0 -15 1 -15 13 1 8 11 20
17 28 14 9 -3 6 -10 -13 -22 -27 -17 -27 -17 -55 13 -33 36 -80 49 -107 29
-16 -13 -15 -14 16 -10 40 4 82 -26 93 -68 6 -25 6 -25 -11 -5 l-17 20 7 -20
c16 -45 18 -75 6 -75 -7 0 -10 8 -7 19 7 26 -36 105 -59 109 -17 3 -17 2 3
-12 24 -18 44 -93 35 -129 -9 -36 -53 -96 -76 -104 -32 -11 -40 -10 -54 7 -11
13 -11 11 -2 -7 10 -21 34 -28 80 -24 11 1 10 -2 -3 -10 -11 -6 -33 -8 -50 -5
l-32 6 23 -19 c12 -11 18 -22 13 -25 -13 -8 -48 39 -56 74 -4 17 -11 32 -16
35 -17 11 -10 114 11 154 10 21 16 41 13 45 -3 3 -1 12 6 20 6 8 14 24 16 35
2 12 19 47 38 79 19 31 37 66 41 77 3 11 16 25 28 30 l23 10 3 348 c2 234 -1
347 -8 347 -13 0 -12 27 -13 -362 -1 -181 -4 -325 -8 -320 -10 9 -19 236 -19
483 l0 199 -85 0 -85 0 0 -647 c0 -355 -3 -643 -7 -639 -10 10 -9 -30 -11 664
l-2 622 -74 0 c-69 0 -75 -2 -79 -22 l-4 -23 -2 23 c-1 18 -7 22 -36 22 l-34
0 -4 -77 -3 -78 -2 78 c-2 74 -3 77 -26 77 -19 0 -23 -4 -19 -20 4 -14 0 -20
-12 -20 -12 0 -15 5 -10 20 5 14 2 20 -9 20 -11 0 -16 -9 -16 -30 0 -19 5 -30
13 -29 28 3 48 -2 42 -11 -4 -6 -11 -8 -16 -5 -12 8 -11 -4 6 -110 19 -114 19
-141 0 -149 -10 -4 -20 5 -30 27 -8 18 -12 22 -9 10 6 -26 -11 -32 -20 -7 -8
21 -8 20 11 39 14 14 14 18 2 26 -11 6 -14 35 -14 124 0 84 -3 115 -12 115 -8
0 -12 -13 -11 -32 0 -18 0 -49 -2 -68 l-2 -35 -13 30 c-8 17 -14 47 -15 68 l0
37 -84 0 c-47 0 -87 -3 -90 -8 -2 -4 -7 -128 -10 -276 -3 -148 -8 -271 -11
-274 -3 -3 -5 121 -5 276 l0 282 -25 0 c-14 0 -25 -1 -26 -2 -13 -35 -12
-1972 1 -1976 14 -5 13 -32 -1 -32 -7 0 -9 -9 -5 -24 4 -15 1 -26 -7 -29 -6
-3 -7 -6 -2 -6 11 -1 11 -160 1 -276 l-6 -60 20 49 c10 27 22 81 26 120 4 39
13 88 20 110 18 49 17 56 -1 56 -8 0 -15 7 -15 15 0 9 9 15 23 15 18 0 27 13
52 71 28 68 69 129 86 129 15 0 61 -53 75 -86 17 -41 17 -44 0 -44 -16 0 -51
-93 -111 -305 -26 -88 -75 -236 -109 -330 -35 -93 -75 -204 -90 -245 -14 -41
-42 -95 -61 -119 -19 -24 -35 -47 -35 -51 0 -4 10 -12 22 -18 21 -10 20 -11
-14 -11 -30 -1 -40 -6 -51 -28 -14 -25 -14 -21 -10 48 3 54 2 70 -6 59 -8 -11
-11 19 -13 110 -2 123 -2 123 -5 28 -2 -54 -7 -98 -11 -98 -6 0 -8 178 -2 260
l2 35 8 -30 c6 -22 8 -8 9 50 0 47 -3 75 -8 67 -14 -22 -17 11 -16 143 3 184
5 214 15 190 l9 -20 2 20 c3 29 -2 149 -7 154 -2 2 -4 -26 -4 -64 0 -38 -3
-66 -6 -62 -6 5 -9 325 -16 1622 -2 340 -3 368 -8 185 -3 -118 -5 -398 -5
-622 0 -225 -3 -408 -6 -408 -13 0 -18 208 -19 794 0 336 -2 612 -4 613 -2 2
-6 -9 -9 -24z m573 -614 c0 -348 -3 -440 -12 -437 -20 7 -35 78 -19 88 10 5
13 32 11 96 -7 214 0 705 10 699 6 -4 10 -164 10 -446z m3908 24 c-1 -286 1
-365 12 -377 10 -13 10 -23 -1 -53 -8 -20 -20 -38 -27 -41 -9 -3 -12 92 -12
441 0 244 3 447 7 451 18 18 23 -81 21 -421z m-3301 -768 c29 20 31 19 39 -25
6 -28 5 -32 -9 -27 -10 4 -24 10 -34 14 -11 4 -14 3 -9 -5 4 -7 3 -12 -2 -12
-11 0 -12 -32 0 -47 5 -7 5 -14 -1 -18 -6 -3 -10 -24 -9 -45 1 -22 5 -37 11
-33 5 3 7 0 5 -8 -3 -8 -10 -13 -15 -12 -6 1 -8 -9 -5 -22 4 -21 8 -24 30 -18
22 5 24 3 19 -16 -3 -14 1 -24 13 -31 27 -15 30 -13 31 18 0 25 2 24 19 -15
10 -23 28 -44 40 -48 17 -5 20 -12 15 -28 -4 -12 -12 -41 -18 -64 -9 -32 -19
-45 -45 -58 -19 -9 -36 -15 -37 -13 -1 2 -17 30 -35 63 -33 60 -90 144 -90
133 0 -4 9 -27 20 -52 15 -36 16 -46 5 -46 -7 0 -16 -6 -18 -12 -4 -9 -8 -10
-14 -3 -4 6 -20 16 -35 22 -16 7 -28 17 -28 22 0 5 -11 12 -25 15 -14 4 -25
11 -25 16 0 6 -5 10 -10 10 -7 0 -7 -6 0 -19 14 -27 13 -36 -3 -23 -17 14 -21
63 -4 57 6 -2 30 18 52 44 21 27 44 47 50 45 5 -2 15 6 20 18 13 27 38 37 33
13 -2 -10 2 -20 7 -21 6 -2 11 6 12 19 3 27 11 149 14 197 1 19 3 27 6 17 4
-17 6 -17 30 -2z m1956 -527 c5 6 6 16 3 21 -8 12 20 22 41 14 14 -5 15 -1 10
25 -4 17 -2 34 3 37 11 7 14 -44 4 -69 -3 -9 -15 -16 -26 -16 -16 0 -18 -3
-10 -13 6 -7 9 -25 8 -40 -2 -15 1 -30 5 -33 5 -3 9 14 9 36 0 34 3 41 16 36
9 -3 22 -6 30 -6 8 0 14 -4 14 -10 0 -5 -3 -9 -7 -9 -23 4 -33 -3 -33 -21 0
-15 6 -19 28 -18 15 1 30 7 34 13 5 6 8 6 8 -2 0 -7 7 -13 15 -13 8 0 15 6 15
13 0 9 2 9 9 -1 4 -8 12 -13 17 -12 5 1 10 -3 12 -9 2 -6 -2 -11 -10 -11 -7 0
-60 -1 -118 -3 l-105 -2 1 45 c1 25 3 97 5 160 l3 115 6 -120 c3 -67 9 -114
13 -107z m-1559 -89 c44 -23 92 -45 105 -49 28 -7 31 -13 66 -186 28 -135 33
-292 13 -424 -6 -41 -11 -92 -12 -113 -1 -41 -16 -56 -59 -59 -16 -1 -23 -7
-20 -15 4 -10 9 -11 19 -2 10 8 18 9 27 0 8 -6 16 -8 20 -5 9 10 -5 -40 -16
-53 -14 -19 -27 -16 -20 5 5 14 3 13 -10 -3 l-16 -20 -1 20 c-1 19 -1 19 -10
-1 -14 -35 -67 -81 -144 -123 -70 -39 -109 -50 -119 -33 -4 6 5 72 16 122 4
13 99 71 174 105 l31 14 -67 173 c-77 197 -135 332 -220 512 -35 75 -55 126
-47 126 6 0 17 -5 23 -11 8 -8 26 -4 65 16 29 14 57 31 63 36 18 18 60 8 139
-32z m2498 -409 l-4 -30 101 0 c61 0 101 -4 101 -10 0 -5 -13 -10 -29 -10 -22
0 -30 -6 -35 -25 -3 -13 -11 -37 -17 -52 l-11 -28 -14 25 c-8 14 -13 18 -12
10 3 -21 -34 -88 -40 -72 -3 9 -9 7 -19 -8 -13 -19 -13 -24 -2 -31 8 -5 20 -9
27 -9 6 0 12 -5 12 -10 0 -6 -11 -8 -27 -4 -15 4 -33 7 -40 7 -7 0 -13 7 -13
15 0 12 -4 12 -20 -3 -11 -10 -19 -25 -18 -33 2 -8 -5 -16 -14 -17 -9 -2 -30
-17 -47 -34 -17 -17 -35 -31 -41 -31 -6 0 -14 -10 -19 -21 -5 -14 -18 -23 -35
-25 -37 -4 -39 -7 -47 -62 -5 -38 -8 -43 -14 -24 -4 12 -13 22 -20 22 -15 0
-28 -27 -19 -41 8 -13 -10 -11 -24 3 -9 9 -12 8 -12 -6 0 -9 -4 -14 -10 -11
-5 3 -10 -1 -10 -10 0 -16 -24 -47 -35 -45 -18 4 -23 -10 -18 -50 l6 -45 13
35 c8 23 13 28 13 15 1 -17 3 -17 11 -5 8 12 10 13 10 1 0 -10 7 -8 23 7 13
12 29 22 35 22 13 0 52 31 52 41 0 4 -9 9 -21 12 -12 3 -18 10 -14 16 10 16
45 13 46 -4 3 -28 4 -33 12 -41 4 -4 7 2 7 13 0 12 7 23 15 27 9 3 15 18 15
37 0 18 3 29 7 26 9 -10 13 -367 4 -367 -4 0 -8 -20 -7 -44 0 -31 5 -47 18
-55 14 -9 18 -8 18 4 0 8 6 15 14 15 8 0 21 3 30 6 14 5 16 -4 16 -65 0 -61
-3 -71 -17 -71 -17 -1 -17 -1 0 -14 9 -7 17 -25 17 -40 0 -14 4 -26 9 -26 6 0
9 47 8 111 -1 95 1 113 16 124 14 10 17 26 16 69 -2 58 -14 64 -22 11 -2 -16
-5 5 -6 48 -1 81 11 108 52 115 14 2 17 -5 17 -47 0 -27 -5 -51 -10 -53 -6 -2
-13 -34 -17 -71 -5 -58 -4 -67 10 -62 17 7 33 -10 18 -19 -5 -4 -8 -22 -5 -41
3 -26 0 -35 -11 -35 -8 0 -15 -7 -15 -15 0 -9 6 -12 15 -9 11 5 15 -1 15 -25
0 -17 -3 -30 -8 -28 -8 2 -12 -6 -12 -30 0 -9 3 -13 7 -10 3 4 12 2 19 -4 19
-15 26 38 20 139 -5 85 -1 112 16 112 6 0 8 -7 4 -15 -3 -8 -1 -15 4 -15 6 0
10 10 10 21 0 17 3 19 13 10 8 -6 17 -8 20 -4 4 3 7 -1 7 -9 0 -9 -5 -18 -11
-20 -5 -2 -12 -33 -15 -68 -6 -71 5 -184 15 -160 8 21 50 25 57 6 3 -8 12 -12
20 -9 8 3 25 2 39 -1 22 -6 23 -9 13 -34 -6 -15 -14 -47 -17 -71 -6 -44 -6
-44 -61 -58 -134 -34 -130 -32 -130 -60 0 -25 -15 -24 -15 0 0 16 -80 11 -160
-9 -53 -14 -72 -17 -121 -23 -16 -2 -25 -42 -13 -57 7 -9 1 -18 -19 -33 -16
-11 -31 -19 -33 -18 -2 1 3 -4 11 -11 8 -7 26 -11 40 -8 36 6 80 -4 80 -19 0
-7 -12 -18 -27 -23 l-28 -10 25 -1 c19 -1 22 -3 10 -10 -8 -6 -18 -7 -22 -5
-4 3 -8 -5 -8 -18 0 -16 3 -19 9 -10 11 18 21 -18 21 -81 0 -31 4 -46 12 -45
6 2 13 -4 15 -13 3 -11 -3 -15 -19 -14 -21 1 -23 7 -26 64 -2 36 -7 59 -12 56
-14 -9 -13 -135 1 -135 16 0 43 -30 34 -38 -4 -4 -10 -1 -12 6 -3 6 -13 12
-24 12 -17 0 -19 8 -19 75 0 68 -2 75 -20 75 -11 0 -20 5 -20 10 0 6 9 10 20
10 16 0 20 7 20 35 0 21 -5 36 -12 37 -40 5 -68 3 -68 -5 0 -5 14 -7 30 -5 19
3 30 0 30 -7 0 -7 -12 -12 -26 -12 -36 0 -56 -22 -26 -29 15 -4 22 -14 22 -30
0 -13 -4 -24 -10 -24 -5 0 -10 4 -10 9 0 5 -12 11 -27 13 -21 2 -27 8 -26 23
1 11 0 27 -4 35 -3 8 -5 25 -4 38 2 18 -3 22 -23 22 -23 0 -26 4 -27 38 -1 20
-1 50 0 65 1 32 -5 35 -84 39 l-60 3 1 33 c0 17 1 91 2 163 2 116 4 130 19
127 23 -4 29 -28 7 -28 -16 0 -16 -1 2 -15 17 -13 17 -14 2 -15 -11 0 -18 -8
-18 -21 0 -15 5 -20 23 -17 19 3 22 8 19 46 -3 42 -3 42 31 42 56 0 97 11 97
27 0 34 -64 60 -76 30 -2 -7 -13 -13 -23 -14 -14 -1 -20 7 -23 29 -6 36 10 53
62 69 22 7 40 16 40 21 0 5 6 6 13 3 6 -4 3 1 -7 9 -11 9 -16 17 -10 17 5 1
20 3 34 5 14 1 51 17 83 34 l57 32 -5 51 c-2 29 -4 53 -5 55 0 1 -10 -8 -22
-20 l-23 -23 -5 30 c-6 30 -6 30 -13 5 -4 -14 -7 -39 -7 -57 0 -40 -21 -53
-89 -53 -38 0 -56 -5 -72 -21 -23 -23 -24 -23 -33 7 -8 28 15 57 47 57 16 0
27 5 27 13 0 8 5 14 10 14 6 0 10 -6 10 -14 0 -8 4 -18 10 -21 6 -4 7 6 4 25
-5 21 -2 36 10 49 16 17 16 19 0 25 -25 10 -144 -5 -159 -20 -11 -11 -14 -9
-19 10 -7 29 3 86 15 86 5 0 9 5 9 11 0 5 -4 7 -10 4 -6 -4 -10 16 -10 53 0
55 2 60 20 55 11 -3 17 -9 14 -14 -3 -5 4 -9 15 -9 23 0 28 15 9 23 -8 4 -7 6
4 6 9 1 19 -5 22 -11 3 -9 8 -8 16 5 6 9 16 15 21 11 13 -7 -8 -34 -27 -34
-19 0 -68 -20 -62 -26 3 -2 18 0 33 6 43 16 43 2 0 -15 -20 -9 -35 -18 -33
-21 8 -7 68 17 68 28 0 5 4 6 10 3 6 -3 7 1 4 9 -3 9 -2 16 4 16 6 0 12 -6 15
-12 3 -10 10 -8 23 6 19 18 18 18 -3 12 -18 -6 -20 -4 -16 14 5 20 23 28 23
10 0 -5 5 -10 11 -10 5 0 7 4 4 10 -3 5 0 7 8 4 8 -3 26 9 42 28 16 18 26 25
22 16 -8 -22 6 -24 22 -4 10 11 8 17 -6 26 -16 10 -15 10 4 5 19 -5 22 -3 16
11 -5 13 -2 15 14 10 12 -4 28 1 40 11 60 51 62 52 67 40 2 -7 5 -4 5 6 1 10
6 15 11 12 10 -6 36 14 128 95 12 11 25 19 29 19 3 0 9 4 12 10 4 6 29 26 56
46 28 19 45 35 40 35 -6 1 4 7 20 15 26 12 -8 13 -272 14 -196 1 -303 -3 -303
-9 0 -6 92 -10 257 -10 141 0 254 -2 251 -5 -8 -8 -638 -11 -638 -2 0 4 23 7
50 7 28 0 50 5 50 10 0 6 -25 10 -55 10 -30 0 -55 5 -55 10 0 6 109 10 308 10
l309 0 -5 30 c-3 21 0 30 10 30 10 0 13 -9 10 -30z m328 0 l0 -30 93 -2 92 -2
-93 -3 -92 -4 1 -502 c0 -276 4 -511 8 -521 7 -19 8 -19 16 0 4 10 9 51 10 89
2 46 7 70 15 70 13 0 21 -103 8 -111 -5 -3 -4 -14 2 -24 5 -10 7 -26 4 -34 -5
-13 1 -16 26 -16 23 0 33 -5 37 -20 3 -11 14 -20 24 -20 17 0 19 -6 14 -52 -3
-29 -7 -72 -9 -96 -2 -24 -7 -46 -10 -49 -7 -7 -9 20 -6 91 1 30 -2 46 -9 42
-5 -4 -14 1 -19 10 -8 15 -11 15 -41 0 -17 -9 -36 -14 -41 -11 -5 3 -12 -15
-16 -41 -3 -25 -13 -48 -20 -51 -8 -3 -14 -17 -15 -32 0 -23 -1 -24 -8 -6 -14
34 -23 225 -12 239 9 10 13 244 21 1089 0 15 5 27 10 27 6 0 10 -13 10 -30z
m289 -426 c0 -246 -2 -445 -4 -442 -3 2 -5 73 -6 156 l0 152 -30 0 c-20 0 -29
5 -29 16 0 10 6 14 15 10 8 -3 15 0 15 7 0 8 4 6 10 -3 8 -13 10 -12 10 3 0
11 -8 17 -22 17 l-21 0 22 19 c16 14 21 28 19 55 -1 19 1 38 4 41 3 4 2 20 -2
36 -5 16 -5 27 -1 25 4 -3 8 10 8 29 0 27 -4 35 -19 35 -24 0 -23 21 2 27 18
5 20 14 20 104 l0 99 -27 0 c-21 0 -24 3 -13 9 8 6 17 8 21 5 4 -2 10 7 13 21
4 14 8 25 11 25 2 0 4 -201 4 -446z m-3339 -89 c6 -8 9 -19 5 -25 -4 -6 1 -20
11 -31 19 -21 13 -43 -18 -62 -44 -29 -69 47 -26 77 16 12 18 16 7 16 -9 0
-24 -9 -34 -20 -22 -25 -17 -101 12 -156 29 -56 46 -63 79 -34 l27 25 -7 -25
c-4 -14 -10 -35 -13 -47 -4 -18 -12 -23 -37 -22 -30 1 -30 1 -6 9 26 8 12 14
-29 10 -16 -1 -21 2 -16 10 6 9 2 9 -13 1 -15 -8 -23 -8 -28 1 -4 7 -3 8 4 4
17 -10 15 16 -3 40 -8 10 -15 29 -15 42 0 13 -4 20 -10 17 -11 -7 -13 40 -4
97 11 67 82 112 114 73z m-649 -547 c1 -24 3 -35 6 -25 8 29 21 19 25 -20 5
-43 -9 -123 -22 -123 -5 0 -10 -10 -12 -22 -2 -15 -9 -22 -19 -20 -11 1 -19
-8 -23 -30 l-7 -33 -16 30 c-9 16 -22 35 -29 43 -8 7 -14 23 -14 35 0 14 -3
18 -10 11 -16 -16 -70 -5 -70 15 -1 11 -5 8 -14 -9 -8 -14 -12 -28 -9 -33 2
-4 -1 -15 -9 -24 -9 -12 -9 -15 0 -9 6 4 12 3 12 -3 0 -6 -12 -14 -26 -17 -30
-8 -51 13 -29 30 15 13 26 76 13 76 -5 0 -8 19 -6 42 3 38 5 41 33 44 60 5
100 20 111 43 8 16 13 19 17 9 4 -9 6 -7 6 5 1 25 19 21 24 -5 l4 -23 8 22 c4
13 11 20 16 17 5 -3 9 0 9 5 0 6 7 11 15 11 11 0 15 -12 16 -42z m2291 -100
c1 -70 -2 -514 -5 -647 -1 -41 -6 -66 -14 -69 -9 -2 -14 12 -15 50 l-2 53 -3
-52 -4 -51 -69 -4 -69 -3 -5 60 c-10 109 -13 121 -15 67 -1 -48 -3 -52 -16
-38 -22 22 -36 683 -14 697 8 5 62 9 122 9 l107 0 2 -72z m130 -110 c3 -176
-2 -223 -30 -291 -14 -33 -15 -64 -3 -71 11 -7 23 -178 15 -221 -11 -59 -34
-44 -36 23 l-2 57 -3 -50 c-2 -27 -8 -54 -14 -59 -27 -28 -31 20 -36 403 l-5
391 56 0 56 0 2 -182z m238 160 c1 -13 2 -124 4 -248 2 -124 2 -215 -1 -202
-3 17 -10 22 -26 20 -17 -2 -23 -12 -28 -43 -5 -27 -2 -43 6 -50 7 -5 16 -38
19 -72 6 -56 5 -62 -14 -68 -17 -5 -23 -22 -19 -51 0 -4 -5 -11 -13 -15 -11
-7 -10 -11 2 -19 14 -9 2 -14 -17 -7 -10 3 -10 -3 -11 206 -2 212 -16 238 -18
33 -2 -222 -4 -242 -14 -242 -5 0 -10 23 -10 51 0 31 -4 48 -10 44 -5 -3 -10
-26 -10 -51 0 -40 -2 -44 -24 -44 l-24 0 5 108 c2 59 9 129 15 156 10 44 9 51
-8 63 -17 13 -19 32 -22 233 l-3 220 110 0 c108 0 111 -1 111 -22z m-2438
-200 c23 -13 44 -23 45 -23 1 -1 -4 -27 -11 -58 -8 -32 -13 -61 -12 -65 0 -4
-47 -8 -105 -10 -87 -2 -108 0 -112 12 -8 20 12 140 24 144 5 2 7 8 3 13 -3 5
23 9 59 9 48 0 77 -6 109 -22z m-64 -174 c53 -7 62 -17 43 -52 -30 -55 -75
-427 -69 -563 4 -87 -4 -97 -78 -98 -48 -1 -144 26 -144 40 0 6 6 7 13 3 10
-6 10 -4 0 7 -14 14 -18 119 -5 119 4 0 8 18 9 40 2 23 18 136 38 252 19 116
35 221 35 234 0 22 4 24 53 24 28 0 76 -3 105 -6z m4081 -698 c6 -7 12 -35 13
-62 1 -27 6 -55 12 -63 8 -11 8 -13 -1 -8 -7 5 -18 -5 -29 -28 -9 -19 -24 -35
-33 -35 -13 0 -13 2 -3 9 10 6 6 10 -15 16 l-28 8 25 7 25 8 -24 1 c-19 1 -22
5 -17 25 3 13 2 26 -3 28 -12 4 9 90 24 100 16 12 42 9 54 -6z m-4129 -62 c14
-7 19 -13 11 -14 -11 0 -11 -3 -1 -15 7 -8 8 -15 3 -15 -5 0 -10 -14 -11 -32
-1 -17 -12 -52 -22 -76 -11 -25 -23 -63 -27 -84 -4 -27 -9 -35 -14 -26 -6 9
-9 7 -9 -9 0 -22 -17 -40 -27 -29 -13 13 -29 231 -22 294 4 32 4 32 49 26 25
-4 56 -13 70 -20z"/>
<path d="M230 4798 c0 -178 -2 -798 -5 -1378 -2 -580 -2 -1046 1 -1035 3 11
21 70 39 130 41 137 48 165 37 165 -4 0 -8 26 -8 58 0 31 -1 580 -2 1220 l-2
1162 -30 0 -30 0 0 -322z"/>
<path d="M1248 4943 c-5 -463 -4 -503 13 -487 8 8 22 14 30 14 8 0 22 7 33 15
17 13 18 34 20 322 l1 308 -47 3 -48 3 -2 -178z"/>
<path d="M1370 5103 c-1 -10 -2 -150 -4 -311 l-3 -292 36 6 c20 4 39 9 44 11
4 2 7 139 7 304 l0 299 -40 0 c-31 0 -40 -4 -40 -17z"/>
<path d="M1471 4824 l1 -296 24 -23 c14 -13 38 -28 55 -35 18 -8 28 -18 25
-26 -5 -13 27 -28 50 -23 5 1 11 0 14 -1 3 -1 23 -3 45 -5 22 -2 34 -1 26 2
-8 3 -24 18 -37 32 -12 14 -25 23 -29 20 -3 -4 2 -14 11 -23 9 -9 13 -20 9
-24 -4 -4 -15 3 -25 16 -10 12 -25 22 -33 22 -8 0 -17 6 -20 14 -3 8 -19 17
-36 21 -33 7 -52 25 -27 25 14 0 16 35 16 300 l0 300 -35 0 -35 0 1 -296z"/>
<path d="M2289 5111 c8 -5 12 -15 9 -22 -3 -8 -2 -41 3 -74 4 -33 11 -107 14
-165 3 -58 8 -114 10 -125 2 -11 6 -45 9 -75 3 -30 8 -85 11 -122 6 -58 4 -68
-9 -68 -9 0 -16 3 -17 8 0 4 -6 79 -13 167 l-13 160 -2 -160 c-2 -263 13 -344
45 -254 7 19 13 28 13 22 1 -7 6 -13 12 -13 5 0 7 5 3 12 -5 7 -2 9 9 5 9 -3
18 -1 21 6 2 7 5 2 5 -11 1 -23 3 -23 86 -20 63 2 86 0 90 -10 6 -16 25 -6 25
13 0 10 -17 15 -62 18 l-63 3 68 2 c59 2 68 4 65 20 -2 9 -13 21 -26 27 -27
12 -30 29 -3 20 11 -3 22 -1 26 5 4 6 12 4 22 -6 11 -11 13 -18 5 -23 -7 -4
-8 -18 -2 -41 4 -19 8 -29 9 -22 1 7 16 12 41 12 22 0 40 4 40 10 0 8 57 28
99 35 8 1 18 10 22 21 4 13 9 -1 13 -41 9 -78 21 -105 45 -105 11 0 23 -4 26
-10 8 -13 45 -13 45 1 0 5 4 8 10 4 5 -3 7 -12 3 -20 -3 -8 0 -15 6 -15 6 0
11 10 11 21 0 17 4 20 22 16 28 -8 61 29 55 61 -2 12 0 25 4 28 5 3 9 58 9
122 0 72 4 112 9 103 7 -10 9 -8 9 10 0 13 5 67 11 119 6 52 13 114 16 137 3
30 1 42 -7 40 -7 -1 -14 6 -16 16 -2 10 2 17 11 17 8 0 17 14 21 31 9 45 8 49
-9 43 -10 -4 -15 0 -15 15 0 12 6 21 15 21 8 0 15 9 15 20 0 20 -7 20 -437 20
-258 0 -432 -4 -424 -9z"/>
<path d="M4990 5108 c0 -4 9 -8 20 -8 11 0 20 -4 20 -10 0 -5 -5 -10 -11 -10
-6 0 -4 -6 3 -14 11 -11 14 -53 11 -207 -2 -107 -3 -312 -3 -457 0 -173 -3
-261 -10 -257 -6 4 -10 123 -10 325 0 191 -4 321 -10 325 -5 3 -9 -486 -10
-1322 -1 -730 -3 -1606 -5 -1946 -2 -368 0 -617 6 -617 5 0 9 -25 9 -55 l0
-55 60 0 60 0 0 1138 c0 738 -4 1132 -10 1122 -7 -11 -10 1 -10 40 0 39 3 51
10 40 7 -10 10 25 10 108 0 80 -4 121 -10 117 -6 -4 -10 45 -10 140 0 84 4
144 9 141 5 -4 9 35 10 89 0 52 -4 97 -9 100 -6 4 -10 63 -9 138 1 82 4 122 9
107 4 -14 8 70 7 190 l-1 215 -6 -155 c-5 -137 -6 -123 -8 120 -1 180 2 270 8
260 7 -10 9 3 8 45 l-1 60 -7 -45 c-4 -28 -8 24 -8 133 -1 117 1 176 8 172 6
-3 10 -1 10 4 0 6 -7 11 -15 11 -9 0 -12 6 -9 15 4 8 1 15 -5 15 -12 0 -12 -2
-11 -187 1 -87 -3 -133 -10 -133 -6 0 -11 32 -12 78 -2 42 -3 104 -4 137 -3
111 -1 104 -34 103 -16 -1 -30 -5 -30 -10z"/>
<path d="M4940 2040 c0 -629 2 -1141 5 -1138 7 7 6 2270 0 2276 -3 3 -5 -509
-5 -1138z"/>
<path d="M3010 2650 c-15 -5 35 -8 125 -8 282 -1 295 -2 295 -12 0 -6 -45 -10
-116 -10 -63 0 -113 -4 -110 -8 2 -4 52 -7 111 -6 73 0 103 -2 95 -10 -6 -6
-60 -11 -124 -12 -62 -1 -119 -4 -125 -8 -6 -4 -11 -1 -11 8 0 9 6 16 14 16 8
0 18 5 21 10 3 6 -3 10 -14 10 -11 0 -22 -9 -26 -20 -5 -16 -14 -20 -39 -18
-17 1 -37 -2 -44 -6 -16 -10 -16 16 0 32 9 9 8 12 -5 12 -10 0 -17 -8 -17 -20
0 -20 -17 -25 -62 -21 -10 1 -18 -2 -18 -7 0 -9 65 -15 159 -15 38 0 42 -2 26
-13 -10 -7 -22 -11 -28 -7 -6 3 -7 1 -4 -5 5 -6 35 -8 83 -5 69 4 76 3 70 -12
-3 -9 -6 -21 -6 -26 0 -5 -7 -9 -16 -9 -14 0 -14 3 -4 15 10 13 9 15 -10 15
-16 0 -20 -4 -16 -15 4 -11 -1 -15 -19 -15 -14 0 -25 -4 -25 -10 0 -5 34 -9
78 -9 142 1 159 0 142 -14 -22 -18 -23 -78 -2 -76 10 1 26 0 37 -1 l20 -1 -20
-8 c-11 -5 -25 -6 -31 -4 -7 2 -14 -9 -16 -26 -5 -32 5 -41 44 -41 12 0 18 -3
15 -7 -4 -3 -24 -6 -44 -5 -36 2 -36 1 -14 -14 12 -9 31 -14 42 -11 28 7 23
-11 -6 -25 -14 -6 -25 -16 -25 -21 0 -5 11 -2 24 7 23 14 25 14 29 -2 3 -9 5
88 6 216 l1 232 -207 -1 c-115 -1 -219 -5 -233 -9z"/>
</g>
</svg>
